G04 EAGLE Gerber RS-274X export*
G75*
%MOMM*%
%FSLAX34Y34*%
%LPD*%
%INCopper Layer 2*%
%IPPOS*%
%AMOC8*
5,1,8,0,0,1.08239X$1,22.5*%
G01*
%ADD10C,1.500000*%
%ADD11C,1.219200*%
%ADD12C,0.650000*%
%ADD13C,0.254000*%
%ADD14C,1.050000*%
%ADD15C,2.250000*%
%ADD16C,1.016000*%

G36*
X14917Y128748D02*
X14917Y128748D01*
X15056Y128761D01*
X15075Y128768D01*
X15095Y128771D01*
X15224Y128822D01*
X15355Y128869D01*
X15372Y128880D01*
X15391Y128888D01*
X15503Y128969D01*
X15618Y129047D01*
X15632Y129063D01*
X15648Y129074D01*
X15737Y129182D01*
X15829Y129286D01*
X15838Y129304D01*
X15851Y129319D01*
X15910Y129445D01*
X15973Y129569D01*
X15978Y129589D01*
X15986Y129607D01*
X16012Y129744D01*
X16043Y129879D01*
X16042Y129900D01*
X16046Y129920D01*
X16037Y130058D01*
X16033Y130197D01*
X16028Y130217D01*
X16026Y130237D01*
X15984Y130369D01*
X15945Y130503D01*
X15934Y130520D01*
X15928Y130539D01*
X15854Y130657D01*
X15783Y130777D01*
X15765Y130798D01*
X15758Y130808D01*
X15743Y130822D01*
X15677Y130898D01*
X14922Y131653D01*
X14347Y132513D01*
X13951Y133468D01*
X13899Y133731D01*
X19000Y133731D01*
X24101Y133731D01*
X24049Y133468D01*
X23653Y132513D01*
X23078Y131653D01*
X22323Y130898D01*
X22238Y130788D01*
X22149Y130681D01*
X22141Y130662D01*
X22128Y130646D01*
X22073Y130518D01*
X22014Y130393D01*
X22010Y130373D01*
X22002Y130354D01*
X21980Y130216D01*
X21954Y130081D01*
X21955Y130060D01*
X21952Y130040D01*
X21965Y129901D01*
X21974Y129763D01*
X21980Y129744D01*
X21982Y129724D01*
X22029Y129593D01*
X22072Y129461D01*
X22083Y129443D01*
X22089Y129424D01*
X22167Y129310D01*
X22242Y129192D01*
X22257Y129178D01*
X22268Y129161D01*
X22372Y129069D01*
X22474Y128974D01*
X22491Y128964D01*
X22506Y128951D01*
X22630Y128888D01*
X22752Y128820D01*
X22772Y128815D01*
X22790Y128806D01*
X22926Y128776D01*
X23060Y128741D01*
X23088Y128739D01*
X23100Y128737D01*
X23120Y128737D01*
X23221Y128731D01*
X92279Y128731D01*
X92417Y128748D01*
X92556Y128761D01*
X92575Y128768D01*
X92595Y128771D01*
X92724Y128822D01*
X92855Y128869D01*
X92872Y128880D01*
X92891Y128888D01*
X93003Y128969D01*
X93118Y129047D01*
X93132Y129063D01*
X93148Y129074D01*
X93237Y129182D01*
X93329Y129286D01*
X93338Y129304D01*
X93351Y129319D01*
X93410Y129445D01*
X93473Y129569D01*
X93478Y129589D01*
X93486Y129607D01*
X93512Y129744D01*
X93543Y129879D01*
X93542Y129900D01*
X93546Y129920D01*
X93537Y130058D01*
X93533Y130197D01*
X93528Y130217D01*
X93526Y130237D01*
X93484Y130369D01*
X93445Y130503D01*
X93434Y130520D01*
X93428Y130539D01*
X93354Y130657D01*
X93283Y130777D01*
X93265Y130798D01*
X93258Y130808D01*
X93243Y130822D01*
X93177Y130898D01*
X92422Y131653D01*
X91847Y132513D01*
X91451Y133468D01*
X91399Y133731D01*
X96500Y133731D01*
X101601Y133731D01*
X101549Y133468D01*
X101153Y132513D01*
X100578Y131653D01*
X99823Y130898D01*
X99738Y130788D01*
X99649Y130681D01*
X99641Y130662D01*
X99628Y130646D01*
X99573Y130518D01*
X99514Y130393D01*
X99510Y130373D01*
X99502Y130354D01*
X99480Y130216D01*
X99454Y130081D01*
X99455Y130060D01*
X99452Y130040D01*
X99465Y129901D01*
X99474Y129763D01*
X99480Y129744D01*
X99482Y129724D01*
X99529Y129593D01*
X99572Y129461D01*
X99583Y129443D01*
X99589Y129424D01*
X99667Y129310D01*
X99742Y129192D01*
X99757Y129178D01*
X99768Y129161D01*
X99872Y129069D01*
X99974Y128974D01*
X99991Y128964D01*
X100006Y128951D01*
X100130Y128888D01*
X100252Y128820D01*
X100272Y128815D01*
X100290Y128806D01*
X100426Y128776D01*
X100560Y128741D01*
X100588Y128739D01*
X100600Y128737D01*
X100620Y128737D01*
X100721Y128731D01*
X135453Y128731D01*
X135590Y128748D01*
X135729Y128761D01*
X135748Y128768D01*
X135768Y128771D01*
X135897Y128822D01*
X136028Y128869D01*
X136045Y128880D01*
X136064Y128888D01*
X136176Y128969D01*
X136291Y129047D01*
X136305Y129063D01*
X136321Y129074D01*
X136410Y129182D01*
X136502Y129286D01*
X136511Y129304D01*
X136524Y129319D01*
X136583Y129445D01*
X136646Y129569D01*
X136651Y129589D01*
X136659Y129607D01*
X136686Y129743D01*
X136716Y129879D01*
X136715Y129900D01*
X136719Y129920D01*
X136711Y130058D01*
X136706Y130197D01*
X136701Y130217D01*
X136699Y130237D01*
X136657Y130369D01*
X136618Y130503D01*
X136608Y130520D01*
X136601Y130539D01*
X136527Y130657D01*
X136456Y130777D01*
X136438Y130798D01*
X136431Y130808D01*
X136416Y130822D01*
X136350Y130898D01*
X134225Y133022D01*
X134225Y136978D01*
X137022Y139775D01*
X140978Y139775D01*
X143775Y136978D01*
X143775Y133022D01*
X141650Y130898D01*
X141565Y130788D01*
X141476Y130681D01*
X141467Y130662D01*
X141455Y130646D01*
X141400Y130518D01*
X141341Y130393D01*
X141337Y130373D01*
X141329Y130354D01*
X141307Y130216D01*
X141281Y130081D01*
X141282Y130060D01*
X141279Y130040D01*
X141292Y129901D01*
X141301Y129763D01*
X141307Y129744D01*
X141309Y129724D01*
X141356Y129592D01*
X141399Y129461D01*
X141409Y129443D01*
X141416Y129424D01*
X141494Y129309D01*
X141569Y129192D01*
X141584Y129178D01*
X141595Y129161D01*
X141699Y129069D01*
X141800Y128974D01*
X141818Y128964D01*
X141833Y128951D01*
X141957Y128887D01*
X142079Y128820D01*
X142098Y128815D01*
X142117Y128806D01*
X142252Y128776D01*
X142387Y128741D01*
X142415Y128739D01*
X142427Y128737D01*
X142447Y128737D01*
X142547Y128731D01*
X194779Y128731D01*
X194917Y128748D01*
X195056Y128761D01*
X195075Y128768D01*
X195095Y128771D01*
X195224Y128822D01*
X195355Y128869D01*
X195372Y128880D01*
X195391Y128888D01*
X195503Y128969D01*
X195618Y129047D01*
X195632Y129063D01*
X195648Y129074D01*
X195737Y129182D01*
X195829Y129286D01*
X195838Y129304D01*
X195851Y129319D01*
X195910Y129445D01*
X195973Y129569D01*
X195978Y129589D01*
X195986Y129607D01*
X196012Y129744D01*
X196043Y129879D01*
X196042Y129900D01*
X196046Y129920D01*
X196037Y130058D01*
X196033Y130197D01*
X196028Y130217D01*
X196026Y130237D01*
X195984Y130369D01*
X195945Y130503D01*
X195934Y130520D01*
X195928Y130539D01*
X195854Y130657D01*
X195783Y130777D01*
X195765Y130798D01*
X195758Y130808D01*
X195743Y130822D01*
X195677Y130898D01*
X194922Y131653D01*
X194347Y132513D01*
X193951Y133468D01*
X193899Y133731D01*
X199000Y133731D01*
X199118Y133746D01*
X199237Y133753D01*
X199275Y133765D01*
X199315Y133770D01*
X199426Y133814D01*
X199539Y133851D01*
X199573Y133873D01*
X199611Y133887D01*
X199707Y133957D01*
X199808Y134021D01*
X199808Y134022D01*
X199836Y134051D01*
X199868Y134074D01*
X199869Y134075D01*
X199945Y134167D01*
X200026Y134253D01*
X200046Y134289D01*
X200072Y134320D01*
X200122Y134427D01*
X200180Y134532D01*
X200190Y134571D01*
X200207Y134607D01*
X200229Y134724D01*
X200259Y134840D01*
X200263Y134900D01*
X200267Y134920D01*
X200266Y134940D01*
X200269Y135000D01*
X200269Y140101D01*
X200532Y140049D01*
X201487Y139653D01*
X202347Y139079D01*
X203079Y138347D01*
X203653Y137487D01*
X203849Y137014D01*
X203864Y136989D01*
X203873Y136961D01*
X203942Y136851D01*
X204007Y136738D01*
X204027Y136717D01*
X204043Y136692D01*
X204138Y136603D01*
X204228Y136510D01*
X204253Y136494D01*
X204275Y136474D01*
X204388Y136411D01*
X204499Y136343D01*
X204527Y136335D01*
X204553Y136320D01*
X204679Y136288D01*
X204803Y136250D01*
X204832Y136248D01*
X204861Y136241D01*
X205022Y136231D01*
X268731Y136231D01*
X268731Y135743D01*
X268735Y135708D01*
X268733Y135673D01*
X268755Y135550D01*
X268771Y135427D01*
X268783Y135395D01*
X268790Y135360D01*
X268842Y135247D01*
X268888Y135131D01*
X268908Y135103D01*
X268923Y135071D01*
X269001Y134975D01*
X269074Y134874D01*
X269101Y134852D01*
X269124Y134825D01*
X269223Y134751D01*
X269319Y134671D01*
X269351Y134656D01*
X269379Y134635D01*
X269495Y134589D01*
X269607Y134536D01*
X269641Y134529D01*
X269674Y134516D01*
X269798Y134499D01*
X269920Y134476D01*
X269954Y134478D01*
X269989Y134473D01*
X270113Y134488D01*
X270237Y134496D01*
X270270Y134506D01*
X270305Y134511D01*
X270421Y134555D01*
X270539Y134594D01*
X270569Y134612D01*
X270602Y134625D01*
X270703Y134697D01*
X270808Y134764D01*
X270832Y134789D01*
X270861Y134810D01*
X270941Y134905D01*
X271026Y134995D01*
X271043Y135026D01*
X271066Y135053D01*
X271120Y135165D01*
X271180Y135274D01*
X271188Y135308D01*
X271204Y135339D01*
X271245Y135495D01*
X271451Y136532D01*
X271847Y137487D01*
X272357Y138251D01*
X272364Y138264D01*
X272373Y138275D01*
X272435Y138406D01*
X272499Y138535D01*
X272502Y138550D01*
X272509Y138563D01*
X272536Y138704D01*
X272566Y138846D01*
X272566Y138861D01*
X272569Y138876D01*
X272560Y139019D01*
X272554Y139164D01*
X272550Y139178D01*
X272549Y139193D01*
X272504Y139330D01*
X272463Y139469D01*
X272455Y139481D01*
X272451Y139495D01*
X272382Y139604D01*
X272438Y139555D01*
X272469Y139539D01*
X272496Y139517D01*
X272610Y139467D01*
X272721Y139410D01*
X272755Y139403D01*
X272787Y139389D01*
X272910Y139368D01*
X273031Y139341D01*
X273066Y139342D01*
X273101Y139336D01*
X273224Y139347D01*
X273349Y139350D01*
X273383Y139360D01*
X273418Y139363D01*
X273535Y139404D01*
X273654Y139439D01*
X273685Y139457D01*
X273718Y139468D01*
X273857Y139549D01*
X274013Y139653D01*
X274968Y140049D01*
X275231Y140101D01*
X275231Y135000D01*
X275246Y134882D01*
X275253Y134763D01*
X275265Y134725D01*
X275270Y134685D01*
X275314Y134574D01*
X275351Y134461D01*
X275373Y134427D01*
X275387Y134389D01*
X275457Y134293D01*
X275521Y134192D01*
X275522Y134192D01*
X275551Y134164D01*
X275574Y134132D01*
X275575Y134131D01*
X275667Y134055D01*
X275753Y133974D01*
X275789Y133954D01*
X275820Y133928D01*
X275927Y133878D01*
X276032Y133820D01*
X276071Y133810D01*
X276107Y133793D01*
X276224Y133771D01*
X276340Y133741D01*
X276400Y133737D01*
X276420Y133733D01*
X276440Y133734D01*
X276500Y133731D01*
X281601Y133731D01*
X281549Y133468D01*
X281153Y132513D01*
X280578Y131653D01*
X279823Y130898D01*
X279738Y130788D01*
X279649Y130681D01*
X279641Y130662D01*
X279628Y130646D01*
X279573Y130518D01*
X279514Y130393D01*
X279510Y130373D01*
X279502Y130354D01*
X279480Y130216D01*
X279454Y130081D01*
X279455Y130060D01*
X279452Y130040D01*
X279465Y129901D01*
X279474Y129763D01*
X279480Y129744D01*
X279482Y129724D01*
X279529Y129593D01*
X279572Y129461D01*
X279583Y129443D01*
X279589Y129424D01*
X279667Y129310D01*
X279742Y129192D01*
X279757Y129178D01*
X279768Y129161D01*
X279872Y129069D01*
X279974Y128974D01*
X279991Y128964D01*
X280006Y128951D01*
X280130Y128888D01*
X280252Y128820D01*
X280272Y128815D01*
X280290Y128806D01*
X280426Y128776D01*
X280560Y128741D01*
X280588Y128739D01*
X280600Y128737D01*
X280620Y128737D01*
X280721Y128731D01*
X315453Y128731D01*
X315590Y128748D01*
X315729Y128761D01*
X315748Y128768D01*
X315768Y128771D01*
X315897Y128822D01*
X316028Y128869D01*
X316045Y128880D01*
X316064Y128888D01*
X316176Y128969D01*
X316291Y129047D01*
X316305Y129063D01*
X316321Y129074D01*
X316410Y129182D01*
X316502Y129286D01*
X316511Y129304D01*
X316524Y129319D01*
X316583Y129445D01*
X316646Y129569D01*
X316651Y129589D01*
X316659Y129607D01*
X316686Y129743D01*
X316716Y129879D01*
X316715Y129900D01*
X316719Y129920D01*
X316711Y130058D01*
X316706Y130197D01*
X316701Y130217D01*
X316699Y130237D01*
X316657Y130369D01*
X316618Y130503D01*
X316608Y130520D01*
X316601Y130539D01*
X316527Y130657D01*
X316456Y130777D01*
X316438Y130798D01*
X316431Y130808D01*
X316416Y130822D01*
X316350Y130898D01*
X314225Y133022D01*
X314225Y136978D01*
X317022Y139775D01*
X320978Y139775D01*
X323775Y136978D01*
X323775Y133022D01*
X321650Y130898D01*
X321565Y130788D01*
X321476Y130681D01*
X321467Y130662D01*
X321455Y130646D01*
X321400Y130518D01*
X321341Y130393D01*
X321337Y130373D01*
X321329Y130354D01*
X321307Y130216D01*
X321281Y130081D01*
X321282Y130060D01*
X321279Y130040D01*
X321292Y129901D01*
X321301Y129763D01*
X321307Y129744D01*
X321309Y129724D01*
X321356Y129592D01*
X321399Y129461D01*
X321409Y129443D01*
X321416Y129424D01*
X321494Y129309D01*
X321569Y129192D01*
X321584Y129178D01*
X321595Y129161D01*
X321699Y129069D01*
X321800Y128974D01*
X321818Y128964D01*
X321833Y128951D01*
X321957Y128887D01*
X322079Y128820D01*
X322098Y128815D01*
X322117Y128806D01*
X322252Y128776D01*
X322387Y128741D01*
X322415Y128739D01*
X322427Y128737D01*
X322447Y128737D01*
X322547Y128731D01*
X374779Y128731D01*
X374917Y128748D01*
X375056Y128761D01*
X375075Y128768D01*
X375095Y128771D01*
X375224Y128822D01*
X375355Y128869D01*
X375372Y128880D01*
X375391Y128888D01*
X375503Y128969D01*
X375618Y129047D01*
X375632Y129063D01*
X375648Y129074D01*
X375737Y129182D01*
X375829Y129286D01*
X375838Y129304D01*
X375851Y129319D01*
X375910Y129445D01*
X375973Y129569D01*
X375978Y129589D01*
X375986Y129607D01*
X376012Y129744D01*
X376043Y129879D01*
X376042Y129900D01*
X376046Y129920D01*
X376037Y130058D01*
X376033Y130197D01*
X376028Y130217D01*
X376026Y130237D01*
X375984Y130369D01*
X375945Y130503D01*
X375934Y130520D01*
X375928Y130539D01*
X375854Y130657D01*
X375783Y130777D01*
X375765Y130798D01*
X375758Y130808D01*
X375743Y130822D01*
X375677Y130898D01*
X374922Y131653D01*
X374347Y132513D01*
X373951Y133468D01*
X373899Y133731D01*
X379000Y133731D01*
X379118Y133746D01*
X379237Y133753D01*
X379275Y133765D01*
X379315Y133770D01*
X379426Y133814D01*
X379539Y133851D01*
X379573Y133873D01*
X379611Y133887D01*
X379707Y133957D01*
X379808Y134021D01*
X379808Y134022D01*
X379836Y134051D01*
X379868Y134074D01*
X379869Y134075D01*
X379945Y134167D01*
X380026Y134253D01*
X380046Y134289D01*
X380072Y134320D01*
X380122Y134427D01*
X380180Y134532D01*
X380190Y134571D01*
X380207Y134607D01*
X380229Y134724D01*
X380259Y134840D01*
X380263Y134900D01*
X380267Y134920D01*
X380266Y134940D01*
X380269Y135000D01*
X380269Y140101D01*
X380532Y140049D01*
X381487Y139653D01*
X382347Y139079D01*
X383079Y138347D01*
X383653Y137487D01*
X383827Y137066D01*
X383862Y137006D01*
X383888Y136941D01*
X383940Y136868D01*
X383985Y136790D01*
X384033Y136740D01*
X384074Y136684D01*
X384144Y136626D01*
X384206Y136562D01*
X384266Y136525D01*
X384319Y136481D01*
X384401Y136443D01*
X384477Y136396D01*
X384544Y136375D01*
X384607Y136345D01*
X384695Y136328D01*
X384781Y136302D01*
X384851Y136299D01*
X384920Y136286D01*
X385009Y136291D01*
X385099Y136287D01*
X385167Y136301D01*
X385237Y136305D01*
X385322Y136333D01*
X385410Y136351D01*
X385473Y136382D01*
X385539Y136403D01*
X385615Y136451D01*
X385696Y136491D01*
X385749Y136536D01*
X385808Y136573D01*
X385870Y136639D01*
X385938Y136697D01*
X385978Y136754D01*
X386026Y136805D01*
X386069Y136884D01*
X386121Y136957D01*
X386146Y137023D01*
X386180Y137084D01*
X386202Y137170D01*
X386234Y137255D01*
X386242Y137324D01*
X386259Y137392D01*
X386269Y137552D01*
X386269Y138731D01*
X445453Y138731D01*
X445590Y138748D01*
X445729Y138761D01*
X445748Y138768D01*
X445768Y138771D01*
X445897Y138822D01*
X446028Y138869D01*
X446045Y138880D01*
X446064Y138888D01*
X446176Y138969D01*
X446291Y139047D01*
X446305Y139063D01*
X446321Y139074D01*
X446410Y139182D01*
X446502Y139286D01*
X446511Y139304D01*
X446524Y139319D01*
X446583Y139445D01*
X446646Y139569D01*
X446651Y139589D01*
X446659Y139607D01*
X446686Y139743D01*
X446716Y139879D01*
X446715Y139900D01*
X446719Y139920D01*
X446711Y140057D01*
X446706Y140197D01*
X446701Y140217D01*
X446699Y140237D01*
X446657Y140369D01*
X446618Y140503D01*
X446608Y140520D01*
X446601Y140539D01*
X446527Y140657D01*
X446456Y140777D01*
X446438Y140798D01*
X446431Y140808D01*
X446416Y140822D01*
X446350Y140898D01*
X444225Y143022D01*
X444225Y146978D01*
X447022Y149775D01*
X450978Y149775D01*
X453775Y146978D01*
X453775Y143022D01*
X452254Y141502D01*
X452233Y141474D01*
X452206Y141451D01*
X452136Y141349D01*
X452059Y141250D01*
X452045Y141218D01*
X452025Y141189D01*
X451982Y141073D01*
X451933Y140959D01*
X451927Y140924D01*
X451915Y140891D01*
X451903Y140768D01*
X451883Y140645D01*
X451886Y140610D01*
X451883Y140575D01*
X451901Y140452D01*
X451913Y140328D01*
X451925Y140295D01*
X451930Y140260D01*
X451978Y140146D01*
X452021Y140029D01*
X452040Y140000D01*
X452054Y139967D01*
X452129Y139868D01*
X452199Y139766D01*
X452225Y139742D01*
X452247Y139714D01*
X452344Y139637D01*
X452438Y139555D01*
X452469Y139539D01*
X452496Y139517D01*
X452610Y139467D01*
X452721Y139410D01*
X452755Y139403D01*
X452787Y139389D01*
X452910Y139368D01*
X453031Y139341D01*
X453066Y139342D01*
X453101Y139336D01*
X453224Y139347D01*
X453349Y139350D01*
X453383Y139360D01*
X453418Y139363D01*
X453535Y139404D01*
X453654Y139439D01*
X453685Y139457D01*
X453718Y139468D01*
X453857Y139549D01*
X454013Y139653D01*
X454968Y140049D01*
X455231Y140101D01*
X455231Y135000D01*
X455246Y134882D01*
X455253Y134763D01*
X455265Y134725D01*
X455270Y134685D01*
X455314Y134574D01*
X455351Y134461D01*
X455373Y134427D01*
X455387Y134389D01*
X455457Y134293D01*
X455521Y134192D01*
X455522Y134192D01*
X455551Y134164D01*
X455574Y134132D01*
X455575Y134131D01*
X455667Y134055D01*
X455753Y133974D01*
X455789Y133954D01*
X455820Y133928D01*
X455927Y133878D01*
X456032Y133820D01*
X456071Y133810D01*
X456107Y133793D01*
X456224Y133771D01*
X456340Y133741D01*
X456400Y133737D01*
X456420Y133733D01*
X456440Y133734D01*
X456500Y133731D01*
X461601Y133731D01*
X461549Y133468D01*
X461349Y132986D01*
X461339Y132949D01*
X461331Y132931D01*
X461329Y132923D01*
X461315Y132893D01*
X461294Y132785D01*
X461265Y132679D01*
X461264Y132629D01*
X461255Y132581D01*
X461262Y132471D01*
X461260Y132361D01*
X461272Y132313D01*
X461275Y132263D01*
X461309Y132159D01*
X461334Y132052D01*
X461357Y132008D01*
X461373Y131961D01*
X461432Y131868D01*
X461483Y131771D01*
X461516Y131734D01*
X461543Y131692D01*
X461623Y131617D01*
X461697Y131535D01*
X461738Y131508D01*
X461775Y131474D01*
X461871Y131421D01*
X461962Y131361D01*
X462010Y131344D01*
X462053Y131320D01*
X462159Y131293D01*
X462263Y131257D01*
X462313Y131253D01*
X462361Y131241D01*
X462522Y131231D01*
X492956Y131231D01*
X493074Y131246D01*
X493193Y131253D01*
X493231Y131266D01*
X493272Y131271D01*
X493382Y131314D01*
X493495Y131351D01*
X493530Y131373D01*
X493567Y131388D01*
X493663Y131458D01*
X493764Y131521D01*
X493792Y131551D01*
X493825Y131574D01*
X493901Y131666D01*
X493982Y131753D01*
X494002Y131788D01*
X494027Y131819D01*
X494078Y131927D01*
X494136Y132031D01*
X494146Y132071D01*
X494163Y132107D01*
X494185Y132224D01*
X494215Y132339D01*
X494219Y132400D01*
X494223Y132420D01*
X494221Y132440D01*
X494223Y132457D01*
X494223Y132458D01*
X494223Y132459D01*
X494225Y132500D01*
X494225Y136978D01*
X497022Y139775D01*
X500978Y139775D01*
X503775Y136978D01*
X503775Y132500D01*
X503790Y132382D01*
X503797Y132263D01*
X503810Y132225D01*
X503815Y132184D01*
X503858Y132074D01*
X503895Y131961D01*
X503917Y131926D01*
X503932Y131889D01*
X504001Y131793D01*
X504065Y131692D01*
X504095Y131664D01*
X504118Y131631D01*
X504210Y131556D01*
X504297Y131474D01*
X504332Y131454D01*
X504363Y131429D01*
X504471Y131378D01*
X504575Y131320D01*
X504615Y131310D01*
X504651Y131293D01*
X504768Y131271D01*
X504883Y131241D01*
X504943Y131237D01*
X504963Y131233D01*
X504984Y131235D01*
X505044Y131231D01*
X549000Y131231D01*
X549118Y131246D01*
X549237Y131253D01*
X549275Y131266D01*
X549316Y131271D01*
X549426Y131314D01*
X549539Y131351D01*
X549574Y131373D01*
X549611Y131388D01*
X549707Y131458D01*
X549808Y131521D01*
X549836Y131551D01*
X549869Y131574D01*
X549945Y131666D01*
X550026Y131753D01*
X550046Y131788D01*
X550071Y131819D01*
X550122Y131927D01*
X550180Y132031D01*
X550190Y132071D01*
X550207Y132107D01*
X550229Y132224D01*
X550259Y132339D01*
X550263Y132400D01*
X550267Y132420D01*
X550265Y132440D01*
X550267Y132457D01*
X550267Y132458D01*
X550267Y132459D01*
X550269Y132500D01*
X550269Y182500D01*
X550254Y182618D01*
X550247Y182737D01*
X550234Y182775D01*
X550229Y182816D01*
X550186Y182926D01*
X550149Y183039D01*
X550127Y183074D01*
X550112Y183111D01*
X550043Y183207D01*
X549979Y183308D01*
X549949Y183336D01*
X549926Y183369D01*
X549834Y183445D01*
X549747Y183526D01*
X549712Y183546D01*
X549681Y183571D01*
X549573Y183622D01*
X549469Y183680D01*
X549429Y183690D01*
X549393Y183707D01*
X549276Y183729D01*
X549161Y183759D01*
X549101Y183763D01*
X549081Y183767D01*
X549060Y183765D01*
X549000Y183769D01*
X451022Y183769D01*
X450972Y183763D01*
X450923Y183765D01*
X450815Y183743D01*
X450706Y183729D01*
X450660Y183711D01*
X450611Y183701D01*
X450513Y183653D01*
X450410Y183612D01*
X450370Y183583D01*
X450326Y183561D01*
X450242Y183490D01*
X450153Y183426D01*
X450121Y183387D01*
X450084Y183355D01*
X450020Y183265D01*
X449950Y183181D01*
X449929Y183136D01*
X449900Y183095D01*
X449862Y182992D01*
X449815Y182893D01*
X449805Y182844D01*
X449788Y182798D01*
X449776Y182688D01*
X449755Y182581D01*
X449758Y182531D01*
X449753Y182482D01*
X449768Y182373D01*
X449775Y182263D01*
X449790Y182216D01*
X449797Y182167D01*
X449849Y182014D01*
X450049Y181532D01*
X450101Y181269D01*
X445000Y181269D01*
X439899Y181269D01*
X439951Y181532D01*
X440151Y182014D01*
X440164Y182062D01*
X440185Y182107D01*
X440206Y182215D01*
X440235Y182321D01*
X440236Y182371D01*
X440245Y182420D01*
X440238Y182529D01*
X440240Y182639D01*
X440228Y182687D01*
X440225Y182737D01*
X440191Y182841D01*
X440166Y182948D01*
X440143Y182992D01*
X440127Y183039D01*
X440068Y183132D01*
X440017Y183229D01*
X439984Y183266D01*
X439957Y183308D01*
X439877Y183383D01*
X439803Y183465D01*
X439762Y183492D01*
X439725Y183526D01*
X439629Y183579D01*
X439537Y183639D01*
X439490Y183656D01*
X439447Y183680D01*
X439341Y183707D01*
X439237Y183743D01*
X439187Y183747D01*
X439139Y183759D01*
X438978Y183769D01*
X271022Y183769D01*
X270972Y183763D01*
X270923Y183765D01*
X270815Y183743D01*
X270706Y183729D01*
X270660Y183711D01*
X270611Y183701D01*
X270513Y183653D01*
X270410Y183612D01*
X270370Y183583D01*
X270326Y183561D01*
X270242Y183490D01*
X270153Y183426D01*
X270121Y183387D01*
X270084Y183355D01*
X270020Y183265D01*
X269950Y183181D01*
X269929Y183136D01*
X269900Y183095D01*
X269862Y182992D01*
X269815Y182893D01*
X269805Y182844D01*
X269788Y182798D01*
X269776Y182688D01*
X269755Y182581D01*
X269758Y182531D01*
X269753Y182482D01*
X269768Y182373D01*
X269775Y182263D01*
X269790Y182216D01*
X269797Y182167D01*
X269849Y182014D01*
X270049Y181532D01*
X270101Y181269D01*
X265000Y181269D01*
X259899Y181269D01*
X259951Y181532D01*
X260151Y182014D01*
X260164Y182062D01*
X260185Y182107D01*
X260206Y182215D01*
X260235Y182321D01*
X260236Y182371D01*
X260245Y182420D01*
X260238Y182529D01*
X260240Y182639D01*
X260228Y182687D01*
X260225Y182737D01*
X260191Y182841D01*
X260166Y182948D01*
X260143Y182992D01*
X260127Y183039D01*
X260069Y183132D01*
X260017Y183229D01*
X259984Y183266D01*
X259957Y183308D01*
X259877Y183383D01*
X259803Y183465D01*
X259762Y183492D01*
X259726Y183526D01*
X259629Y183579D01*
X259538Y183639D01*
X259490Y183656D01*
X259447Y183680D01*
X259341Y183707D01*
X259237Y183743D01*
X259187Y183747D01*
X259139Y183759D01*
X258978Y183769D01*
X91022Y183769D01*
X90972Y183763D01*
X90923Y183765D01*
X90815Y183743D01*
X90706Y183729D01*
X90660Y183711D01*
X90611Y183701D01*
X90513Y183653D01*
X90410Y183612D01*
X90370Y183583D01*
X90326Y183561D01*
X90242Y183490D01*
X90153Y183426D01*
X90121Y183387D01*
X90084Y183355D01*
X90020Y183265D01*
X89950Y183181D01*
X89929Y183136D01*
X89900Y183095D01*
X89862Y182992D01*
X89815Y182893D01*
X89805Y182844D01*
X89788Y182798D01*
X89776Y182688D01*
X89755Y182581D01*
X89758Y182531D01*
X89753Y182482D01*
X89768Y182373D01*
X89775Y182263D01*
X89790Y182216D01*
X89797Y182167D01*
X89849Y182014D01*
X90049Y181532D01*
X90101Y181269D01*
X85000Y181269D01*
X79899Y181269D01*
X79951Y181532D01*
X80151Y182014D01*
X80164Y182062D01*
X80185Y182107D01*
X80206Y182215D01*
X80235Y182321D01*
X80236Y182371D01*
X80245Y182420D01*
X80238Y182529D01*
X80240Y182639D01*
X80228Y182687D01*
X80225Y182737D01*
X80191Y182841D01*
X80166Y182948D01*
X80143Y182992D01*
X80127Y183039D01*
X80068Y183132D01*
X80017Y183229D01*
X79984Y183266D01*
X79957Y183308D01*
X79877Y183383D01*
X79803Y183465D01*
X79762Y183492D01*
X79725Y183526D01*
X79629Y183579D01*
X79537Y183639D01*
X79490Y183656D01*
X79447Y183680D01*
X79341Y183707D01*
X79237Y183743D01*
X79187Y183747D01*
X79139Y183759D01*
X78978Y183769D01*
X4278Y183769D01*
X4160Y183754D01*
X4041Y183747D01*
X4003Y183734D01*
X3962Y183729D01*
X3852Y183686D01*
X3739Y183649D01*
X3704Y183627D01*
X3667Y183612D01*
X3571Y183543D01*
X3470Y183479D01*
X3442Y183449D01*
X3409Y183426D01*
X3333Y183334D01*
X3252Y183247D01*
X3232Y183212D01*
X3207Y183181D01*
X3156Y183073D01*
X3098Y182969D01*
X3088Y182929D01*
X3071Y182893D01*
X3049Y182776D01*
X3019Y182661D01*
X3015Y182601D01*
X3011Y182581D01*
X3013Y182560D01*
X3009Y182500D01*
X3009Y130000D01*
X3024Y129882D01*
X3031Y129763D01*
X3044Y129725D01*
X3049Y129684D01*
X3092Y129574D01*
X3129Y129461D01*
X3151Y129426D01*
X3166Y129389D01*
X3235Y129293D01*
X3299Y129192D01*
X3329Y129164D01*
X3352Y129131D01*
X3444Y129056D01*
X3531Y128974D01*
X3566Y128954D01*
X3597Y128929D01*
X3705Y128878D01*
X3809Y128820D01*
X3849Y128810D01*
X3885Y128793D01*
X4002Y128771D01*
X4117Y128741D01*
X4177Y128737D01*
X4197Y128733D01*
X4218Y128735D01*
X4278Y128731D01*
X14779Y128731D01*
X14917Y128748D01*
G37*
G36*
X390098Y248743D02*
X390098Y248743D01*
X390197Y248746D01*
X390255Y248763D01*
X390316Y248771D01*
X390408Y248807D01*
X390503Y248835D01*
X390555Y248865D01*
X390611Y248888D01*
X390691Y248946D01*
X390777Y248996D01*
X390852Y249062D01*
X390869Y249074D01*
X390876Y249084D01*
X390898Y249103D01*
X400526Y258731D01*
X550750Y258731D01*
X550868Y258746D01*
X550987Y258753D01*
X551025Y258766D01*
X551066Y258771D01*
X551176Y258814D01*
X551289Y258851D01*
X551324Y258873D01*
X551361Y258888D01*
X551457Y258958D01*
X551558Y259021D01*
X551586Y259051D01*
X551619Y259074D01*
X551695Y259166D01*
X551776Y259253D01*
X551796Y259288D01*
X551821Y259319D01*
X551872Y259427D01*
X551930Y259531D01*
X551940Y259571D01*
X551957Y259607D01*
X551979Y259724D01*
X552009Y259839D01*
X552013Y259900D01*
X552017Y259920D01*
X552015Y259940D01*
X552019Y260000D01*
X552019Y280000D01*
X552004Y280118D01*
X551997Y280237D01*
X551984Y280275D01*
X551979Y280316D01*
X551936Y280426D01*
X551899Y280539D01*
X551877Y280574D01*
X551862Y280611D01*
X551793Y280707D01*
X551729Y280808D01*
X551699Y280836D01*
X551676Y280869D01*
X551584Y280945D01*
X551497Y281026D01*
X551462Y281046D01*
X551431Y281071D01*
X551323Y281122D01*
X551219Y281180D01*
X551179Y281190D01*
X551143Y281207D01*
X551026Y281229D01*
X550911Y281259D01*
X550851Y281263D01*
X550831Y281267D01*
X550810Y281265D01*
X550750Y281269D01*
X374270Y281269D01*
X374152Y281254D01*
X374033Y281247D01*
X373995Y281234D01*
X373954Y281229D01*
X373844Y281186D01*
X373731Y281149D01*
X373696Y281127D01*
X373659Y281112D01*
X373563Y281043D01*
X373462Y280979D01*
X373434Y280949D01*
X373401Y280926D01*
X373325Y280834D01*
X373244Y280747D01*
X373224Y280712D01*
X373199Y280681D01*
X373148Y280573D01*
X373090Y280469D01*
X373080Y280429D01*
X373063Y280393D01*
X373041Y280276D01*
X373011Y280161D01*
X373007Y280101D01*
X373003Y280081D01*
X373005Y280060D01*
X373001Y280000D01*
X373001Y277414D01*
X371022Y272636D01*
X367364Y268978D01*
X362586Y266999D01*
X357414Y266999D01*
X352636Y268978D01*
X348978Y272636D01*
X346999Y277414D01*
X346999Y280000D01*
X346984Y280118D01*
X346977Y280237D01*
X346964Y280275D01*
X346959Y280316D01*
X346916Y280426D01*
X346879Y280539D01*
X346857Y280574D01*
X346842Y280611D01*
X346773Y280707D01*
X346709Y280808D01*
X346679Y280836D01*
X346656Y280869D01*
X346564Y280945D01*
X346477Y281026D01*
X346442Y281046D01*
X346411Y281071D01*
X346303Y281122D01*
X346199Y281180D01*
X346159Y281190D01*
X346123Y281207D01*
X346006Y281229D01*
X345891Y281259D01*
X345831Y281263D01*
X345811Y281267D01*
X345790Y281265D01*
X345730Y281269D01*
X4278Y281269D01*
X4160Y281254D01*
X4041Y281247D01*
X4003Y281234D01*
X3962Y281229D01*
X3852Y281186D01*
X3739Y281149D01*
X3704Y281127D01*
X3667Y281112D01*
X3571Y281043D01*
X3470Y280979D01*
X3442Y280949D01*
X3409Y280926D01*
X3333Y280834D01*
X3252Y280747D01*
X3232Y280712D01*
X3207Y280681D01*
X3156Y280573D01*
X3098Y280469D01*
X3088Y280429D01*
X3071Y280393D01*
X3049Y280276D01*
X3019Y280161D01*
X3015Y280101D01*
X3011Y280081D01*
X3013Y280060D01*
X3009Y280000D01*
X3009Y260000D01*
X3024Y259882D01*
X3031Y259763D01*
X3044Y259725D01*
X3049Y259684D01*
X3092Y259574D01*
X3129Y259461D01*
X3151Y259426D01*
X3166Y259389D01*
X3235Y259293D01*
X3299Y259192D01*
X3329Y259164D01*
X3352Y259131D01*
X3444Y259056D01*
X3531Y258974D01*
X3566Y258954D01*
X3597Y258929D01*
X3705Y258878D01*
X3809Y258820D01*
X3849Y258810D01*
X3885Y258793D01*
X4002Y258771D01*
X4117Y258741D01*
X4177Y258737D01*
X4197Y258733D01*
X4218Y258735D01*
X4278Y258731D01*
X329474Y258731D01*
X339103Y249103D01*
X339181Y249042D01*
X339253Y248974D01*
X339306Y248945D01*
X339354Y248908D01*
X339445Y248868D01*
X339531Y248820D01*
X339590Y248805D01*
X339646Y248781D01*
X339744Y248766D01*
X339839Y248741D01*
X339939Y248735D01*
X339960Y248731D01*
X339972Y248733D01*
X340000Y248731D01*
X390000Y248731D01*
X390098Y248743D01*
G37*
G36*
X55051Y31243D02*
X55051Y31243D01*
X55150Y31246D01*
X55208Y31263D01*
X55268Y31271D01*
X55360Y31307D01*
X55455Y31335D01*
X55507Y31365D01*
X55564Y31388D01*
X55644Y31446D01*
X55729Y31496D01*
X55805Y31562D01*
X55821Y31574D01*
X55829Y31584D01*
X55850Y31603D01*
X56022Y31775D01*
X59978Y31775D01*
X60150Y31603D01*
X60228Y31542D01*
X60300Y31474D01*
X60353Y31445D01*
X60401Y31408D01*
X60492Y31368D01*
X60579Y31320D01*
X60637Y31305D01*
X60693Y31281D01*
X60791Y31266D01*
X60887Y31241D01*
X60987Y31235D01*
X61007Y31231D01*
X61019Y31233D01*
X61047Y31231D01*
X352888Y31231D01*
X352898Y31232D01*
X352907Y31231D01*
X353056Y31252D01*
X353204Y31271D01*
X353213Y31274D01*
X353222Y31275D01*
X353374Y31327D01*
X357414Y33001D01*
X362586Y33001D01*
X366626Y31327D01*
X366635Y31325D01*
X366643Y31320D01*
X366788Y31283D01*
X366933Y31243D01*
X366942Y31243D01*
X366951Y31241D01*
X367112Y31231D01*
X551500Y31231D01*
X551618Y31246D01*
X551737Y31253D01*
X551775Y31266D01*
X551816Y31271D01*
X551926Y31314D01*
X552039Y31351D01*
X552074Y31373D01*
X552111Y31388D01*
X552207Y31458D01*
X552308Y31521D01*
X552336Y31551D01*
X552369Y31574D01*
X552445Y31666D01*
X552526Y31753D01*
X552546Y31788D01*
X552571Y31819D01*
X552622Y31927D01*
X552680Y32031D01*
X552690Y32071D01*
X552707Y32107D01*
X552729Y32224D01*
X552759Y32339D01*
X552763Y32400D01*
X552767Y32420D01*
X552765Y32440D01*
X552769Y32500D01*
X552769Y52500D01*
X552754Y52618D01*
X552747Y52737D01*
X552734Y52775D01*
X552729Y52816D01*
X552686Y52926D01*
X552649Y53039D01*
X552627Y53074D01*
X552612Y53111D01*
X552543Y53207D01*
X552479Y53308D01*
X552449Y53336D01*
X552426Y53369D01*
X552334Y53445D01*
X552247Y53526D01*
X552212Y53546D01*
X552181Y53571D01*
X552073Y53622D01*
X551969Y53680D01*
X551929Y53690D01*
X551893Y53707D01*
X551776Y53729D01*
X551661Y53759D01*
X551601Y53763D01*
X551581Y53767D01*
X551560Y53765D01*
X551500Y53769D01*
X4278Y53769D01*
X4160Y53754D01*
X4041Y53747D01*
X4003Y53734D01*
X3962Y53729D01*
X3852Y53686D01*
X3739Y53649D01*
X3704Y53627D01*
X3667Y53612D01*
X3571Y53542D01*
X3470Y53479D01*
X3442Y53449D01*
X3409Y53426D01*
X3333Y53334D01*
X3252Y53247D01*
X3232Y53212D01*
X3207Y53181D01*
X3156Y53073D01*
X3098Y52969D01*
X3088Y52929D01*
X3071Y52893D01*
X3049Y52776D01*
X3019Y52661D01*
X3015Y52600D01*
X3011Y52580D01*
X3013Y52560D01*
X3009Y52500D01*
X3009Y32500D01*
X3024Y32382D01*
X3031Y32263D01*
X3044Y32225D01*
X3049Y32184D01*
X3092Y32074D01*
X3129Y31961D01*
X3151Y31926D01*
X3166Y31889D01*
X3235Y31793D01*
X3299Y31692D01*
X3329Y31664D01*
X3352Y31631D01*
X3444Y31556D01*
X3531Y31474D01*
X3566Y31454D01*
X3597Y31429D01*
X3705Y31378D01*
X3809Y31320D01*
X3849Y31310D01*
X3885Y31293D01*
X4002Y31271D01*
X4117Y31241D01*
X4177Y31237D01*
X4197Y31233D01*
X4218Y31235D01*
X4278Y31231D01*
X54953Y31231D01*
X55051Y31243D01*
G37*
%LPC*%
G36*
X451022Y167725D02*
X451022Y167725D01*
X448225Y170522D01*
X448225Y173753D01*
X448219Y173803D01*
X448221Y173852D01*
X448199Y173960D01*
X448185Y174069D01*
X448167Y174115D01*
X448157Y174164D01*
X448109Y174262D01*
X448068Y174364D01*
X448039Y174405D01*
X448017Y174450D01*
X447946Y174533D01*
X447882Y174622D01*
X447843Y174653D01*
X447811Y174691D01*
X447721Y174754D01*
X447637Y174824D01*
X447591Y174846D01*
X447551Y174874D01*
X447448Y174913D01*
X447349Y174960D01*
X447300Y174969D01*
X447253Y174987D01*
X447144Y174999D01*
X447037Y175020D01*
X446987Y175017D01*
X446937Y175022D01*
X446829Y175007D01*
X446719Y175000D01*
X446672Y174985D01*
X446622Y174978D01*
X446563Y174957D01*
X446269Y174899D01*
X446269Y178731D01*
X450109Y178731D01*
X450107Y178707D01*
X450091Y178624D01*
X450096Y178549D01*
X450091Y178474D01*
X450106Y178391D01*
X450111Y178307D01*
X450134Y178236D01*
X450148Y178162D01*
X450183Y178085D01*
X450209Y178005D01*
X450249Y177941D01*
X450281Y177873D01*
X450334Y177807D01*
X450379Y177736D01*
X450434Y177684D01*
X450482Y177626D01*
X450549Y177576D01*
X450611Y177518D01*
X450677Y177482D01*
X450737Y177437D01*
X450816Y177405D01*
X450889Y177364D01*
X450962Y177346D01*
X451032Y177317D01*
X451116Y177306D01*
X451197Y177285D01*
X451338Y177276D01*
X451347Y177275D01*
X451351Y177275D01*
X451358Y177275D01*
X454978Y177275D01*
X457775Y174478D01*
X457775Y170522D01*
X454978Y167725D01*
X451022Y167725D01*
G37*
%LPD*%
%LPC*%
G36*
X270022Y167225D02*
X270022Y167225D01*
X267225Y170022D01*
X267225Y173542D01*
X267215Y173626D01*
X267214Y173711D01*
X267195Y173783D01*
X267185Y173858D01*
X267154Y173936D01*
X267133Y174018D01*
X267096Y174084D01*
X267068Y174154D01*
X267019Y174222D01*
X266978Y174296D01*
X266926Y174350D01*
X266882Y174411D01*
X266816Y174465D01*
X266758Y174526D01*
X266695Y174566D01*
X266637Y174614D01*
X266560Y174650D01*
X266489Y174695D01*
X266417Y174717D01*
X266349Y174749D01*
X266269Y174765D01*
X266269Y178731D01*
X270101Y178731D01*
X270045Y178446D01*
X270040Y178437D01*
X270019Y178329D01*
X269990Y178223D01*
X269990Y178173D01*
X269980Y178124D01*
X269987Y178015D01*
X269985Y177905D01*
X269997Y177857D01*
X270000Y177807D01*
X270034Y177703D01*
X270059Y177596D01*
X270083Y177552D01*
X270098Y177505D01*
X270157Y177412D01*
X270208Y177315D01*
X270242Y177278D01*
X270268Y177236D01*
X270348Y177161D01*
X270422Y177080D01*
X270463Y177052D01*
X270500Y177018D01*
X270596Y176965D01*
X270687Y176905D01*
X270735Y176889D01*
X270778Y176864D01*
X270884Y176837D01*
X270988Y176801D01*
X271038Y176797D01*
X271086Y176785D01*
X271247Y176775D01*
X273978Y176775D01*
X276775Y173978D01*
X276775Y170022D01*
X273978Y167225D01*
X270022Y167225D01*
G37*
%LPD*%
%LPC*%
G36*
X91391Y136269D02*
X91391Y136269D01*
X91393Y136293D01*
X91409Y136376D01*
X91404Y136451D01*
X91409Y136526D01*
X91394Y136609D01*
X91389Y136693D01*
X91366Y136764D01*
X91352Y136838D01*
X91317Y136915D01*
X91291Y136995D01*
X91251Y137059D01*
X91219Y137127D01*
X91166Y137193D01*
X91121Y137264D01*
X91066Y137316D01*
X91018Y137374D01*
X90951Y137424D01*
X90889Y137482D01*
X90823Y137518D01*
X90763Y137563D01*
X90684Y137595D01*
X90611Y137636D01*
X90538Y137654D01*
X90468Y137683D01*
X90384Y137694D01*
X90303Y137715D01*
X90162Y137724D01*
X90153Y137725D01*
X90149Y137725D01*
X90142Y137725D01*
X87022Y137725D01*
X84225Y140522D01*
X84225Y144478D01*
X87022Y147275D01*
X90978Y147275D01*
X93775Y144478D01*
X93775Y141358D01*
X93785Y141274D01*
X93786Y141190D01*
X93805Y141117D01*
X93815Y141043D01*
X93846Y140964D01*
X93867Y140882D01*
X93904Y140817D01*
X93932Y140747D01*
X93981Y140679D01*
X94022Y140605D01*
X94074Y140550D01*
X94118Y140490D01*
X94184Y140436D01*
X94242Y140375D01*
X94305Y140335D01*
X94363Y140287D01*
X94440Y140251D01*
X94511Y140206D01*
X94583Y140183D01*
X94651Y140151D01*
X94734Y140135D01*
X94815Y140110D01*
X94890Y140106D01*
X94963Y140091D01*
X95048Y140097D01*
X95132Y140092D01*
X95231Y140105D01*
X95231Y136269D01*
X91391Y136269D01*
G37*
%LPD*%
%LPC*%
G36*
X90522Y167725D02*
X90522Y167725D01*
X87725Y170522D01*
X87725Y173642D01*
X87715Y173726D01*
X87714Y173810D01*
X87695Y173883D01*
X87685Y173957D01*
X87654Y174036D01*
X87633Y174118D01*
X87596Y174183D01*
X87568Y174253D01*
X87519Y174321D01*
X87478Y174395D01*
X87426Y174450D01*
X87382Y174510D01*
X87316Y174564D01*
X87258Y174625D01*
X87195Y174665D01*
X87137Y174713D01*
X87060Y174749D01*
X86989Y174794D01*
X86917Y174817D01*
X86849Y174849D01*
X86766Y174865D01*
X86685Y174890D01*
X86610Y174894D01*
X86537Y174909D01*
X86452Y174903D01*
X86368Y174908D01*
X86269Y174895D01*
X86269Y178731D01*
X90109Y178731D01*
X90107Y178707D01*
X90091Y178624D01*
X90096Y178549D01*
X90091Y178474D01*
X90106Y178391D01*
X90111Y178307D01*
X90134Y178236D01*
X90148Y178162D01*
X90183Y178085D01*
X90209Y178005D01*
X90249Y177941D01*
X90281Y177873D01*
X90334Y177807D01*
X90379Y177736D01*
X90434Y177684D01*
X90482Y177626D01*
X90549Y177576D01*
X90611Y177518D01*
X90677Y177482D01*
X90737Y177437D01*
X90816Y177405D01*
X90889Y177364D01*
X90962Y177346D01*
X91032Y177317D01*
X91116Y177306D01*
X91197Y177285D01*
X91338Y177276D01*
X91347Y177275D01*
X91351Y177275D01*
X91358Y177275D01*
X94478Y177275D01*
X97275Y174478D01*
X97275Y170522D01*
X94478Y167725D01*
X90522Y167725D01*
G37*
%LPD*%
%LPC*%
G36*
X271922Y140052D02*
X271922Y140052D01*
X271798Y140124D01*
X271783Y140128D01*
X271770Y140136D01*
X271631Y140172D01*
X271492Y140211D01*
X271477Y140211D01*
X271463Y140215D01*
X271302Y140225D01*
X267022Y140225D01*
X264225Y143022D01*
X264225Y146978D01*
X267022Y149775D01*
X270978Y149775D01*
X273775Y146978D01*
X273775Y143022D01*
X272254Y141502D01*
X272233Y141474D01*
X272206Y141451D01*
X272136Y141349D01*
X272059Y141250D01*
X272045Y141218D01*
X272025Y141189D01*
X271982Y141073D01*
X271933Y140959D01*
X271927Y140924D01*
X271915Y140891D01*
X271903Y140768D01*
X271883Y140645D01*
X271886Y140610D01*
X271883Y140575D01*
X271901Y140452D01*
X271913Y140328D01*
X271925Y140295D01*
X271930Y140260D01*
X271978Y140146D01*
X272021Y140029D01*
X272040Y140000D01*
X272047Y139983D01*
X271922Y140052D01*
G37*
%LPD*%
%LPC*%
G36*
X400522Y170725D02*
X400522Y170725D01*
X397725Y173522D01*
X397725Y177478D01*
X400522Y180275D01*
X404478Y180275D01*
X407275Y177478D01*
X407275Y173522D01*
X404478Y170725D01*
X400522Y170725D01*
G37*
%LPD*%
%LPC*%
G36*
X40522Y170225D02*
X40522Y170225D01*
X37725Y173022D01*
X37725Y176978D01*
X40522Y179775D01*
X44478Y179775D01*
X47275Y176978D01*
X47275Y173022D01*
X44478Y170225D01*
X40522Y170225D01*
G37*
%LPD*%
%LPC*%
G36*
X220522Y170225D02*
X220522Y170225D01*
X217725Y173022D01*
X217725Y176978D01*
X220522Y179775D01*
X224478Y179775D01*
X227275Y176978D01*
X227275Y173022D01*
X224478Y170225D01*
X220522Y170225D01*
G37*
%LPD*%
%LPC*%
G36*
X181749Y271749D02*
X181749Y271749D01*
X181749Y277045D01*
X182115Y276972D01*
X183434Y276426D01*
X184622Y275632D01*
X185632Y274622D01*
X186426Y273434D01*
X186972Y272115D01*
X187045Y271749D01*
X181749Y271749D01*
G37*
%LPD*%
%LPC*%
G36*
X541749Y271749D02*
X541749Y271749D01*
X541749Y277045D01*
X542115Y276972D01*
X543434Y276426D01*
X544622Y275632D01*
X545632Y274622D01*
X546426Y273434D01*
X546972Y272115D01*
X547045Y271749D01*
X541749Y271749D01*
G37*
%LPD*%
%LPC*%
G36*
X181749Y44249D02*
X181749Y44249D01*
X181749Y49545D01*
X182115Y49472D01*
X183434Y48926D01*
X184622Y48132D01*
X185632Y47122D01*
X186426Y45934D01*
X186972Y44615D01*
X187045Y44249D01*
X181749Y44249D01*
G37*
%LPD*%
%LPC*%
G36*
X541749Y44249D02*
X541749Y44249D01*
X541749Y49545D01*
X542115Y49472D01*
X543434Y48926D01*
X544622Y48132D01*
X545632Y47122D01*
X546426Y45934D01*
X546972Y44615D01*
X547045Y44249D01*
X541749Y44249D01*
G37*
%LPD*%
%LPC*%
G36*
X172955Y271749D02*
X172955Y271749D01*
X173028Y272115D01*
X173574Y273434D01*
X174368Y274622D01*
X175378Y275632D01*
X176566Y276426D01*
X177885Y276972D01*
X178251Y277045D01*
X178251Y271749D01*
X172955Y271749D01*
G37*
%LPD*%
%LPC*%
G36*
X532955Y271749D02*
X532955Y271749D01*
X533028Y272115D01*
X533574Y273434D01*
X534368Y274622D01*
X535378Y275632D01*
X536566Y276426D01*
X537885Y276972D01*
X538251Y277045D01*
X538251Y271749D01*
X532955Y271749D01*
G37*
%LPD*%
%LPC*%
G36*
X541749Y268251D02*
X541749Y268251D01*
X547045Y268251D01*
X546972Y267885D01*
X546426Y266566D01*
X545632Y265378D01*
X544622Y264368D01*
X543434Y263574D01*
X542115Y263028D01*
X541749Y262955D01*
X541749Y268251D01*
G37*
%LPD*%
%LPC*%
G36*
X541749Y40751D02*
X541749Y40751D01*
X547045Y40751D01*
X546972Y40385D01*
X546426Y39066D01*
X545632Y37878D01*
X544622Y36868D01*
X543434Y36074D01*
X542115Y35528D01*
X541749Y35455D01*
X541749Y40751D01*
G37*
%LPD*%
%LPC*%
G36*
X181749Y268251D02*
X181749Y268251D01*
X187045Y268251D01*
X186972Y267885D01*
X186426Y266566D01*
X185632Y265378D01*
X184622Y264368D01*
X183434Y263574D01*
X182115Y263028D01*
X181749Y262955D01*
X181749Y268251D01*
G37*
%LPD*%
%LPC*%
G36*
X181749Y40751D02*
X181749Y40751D01*
X187045Y40751D01*
X186972Y40385D01*
X186426Y39066D01*
X185632Y37878D01*
X184622Y36868D01*
X183434Y36074D01*
X182115Y35528D01*
X181749Y35455D01*
X181749Y40751D01*
G37*
%LPD*%
%LPC*%
G36*
X172955Y44249D02*
X172955Y44249D01*
X173028Y44615D01*
X173574Y45934D01*
X174368Y47122D01*
X175378Y48132D01*
X176566Y48926D01*
X177885Y49472D01*
X178251Y49545D01*
X178251Y44249D01*
X172955Y44249D01*
G37*
%LPD*%
%LPC*%
G36*
X532955Y44249D02*
X532955Y44249D01*
X533028Y44615D01*
X533574Y45934D01*
X534368Y47122D01*
X535378Y48132D01*
X536566Y48926D01*
X537885Y49472D01*
X538251Y49545D01*
X538251Y44249D01*
X532955Y44249D01*
G37*
%LPD*%
%LPC*%
G36*
X177885Y263028D02*
X177885Y263028D01*
X176566Y263574D01*
X175378Y264368D01*
X174368Y265378D01*
X173574Y266566D01*
X173028Y267885D01*
X172955Y268251D01*
X178251Y268251D01*
X178251Y262955D01*
X177885Y263028D01*
G37*
%LPD*%
%LPC*%
G36*
X537885Y263028D02*
X537885Y263028D01*
X536566Y263574D01*
X535378Y264368D01*
X534368Y265378D01*
X533574Y266566D01*
X533028Y267885D01*
X532955Y268251D01*
X538251Y268251D01*
X538251Y262955D01*
X537885Y263028D01*
G37*
%LPD*%
%LPC*%
G36*
X537885Y35528D02*
X537885Y35528D01*
X536566Y36074D01*
X535378Y36868D01*
X534368Y37878D01*
X533574Y39066D01*
X533028Y40385D01*
X532955Y40751D01*
X538251Y40751D01*
X538251Y35455D01*
X537885Y35528D01*
G37*
%LPD*%
%LPC*%
G36*
X177885Y35528D02*
X177885Y35528D01*
X176566Y36074D01*
X175378Y36868D01*
X174368Y37878D01*
X173574Y39066D01*
X173028Y40385D01*
X172955Y40751D01*
X178251Y40751D01*
X178251Y35455D01*
X177885Y35528D01*
G37*
%LPD*%
%LPC*%
G36*
X97769Y136269D02*
X97769Y136269D01*
X97769Y140101D01*
X98032Y140049D01*
X98987Y139653D01*
X99847Y139079D01*
X100579Y138347D01*
X101153Y137487D01*
X101549Y136532D01*
X101601Y136269D01*
X97769Y136269D01*
G37*
%LPD*%
%LPC*%
G36*
X343769Y176269D02*
X343769Y176269D01*
X343769Y180101D01*
X344032Y180049D01*
X344987Y179653D01*
X345847Y179079D01*
X346579Y178347D01*
X347153Y177487D01*
X347549Y176532D01*
X347601Y176269D01*
X343769Y176269D01*
G37*
%LPD*%
%LPC*%
G36*
X20269Y136269D02*
X20269Y136269D01*
X20269Y140101D01*
X20532Y140049D01*
X21487Y139653D01*
X22347Y139079D01*
X23079Y138347D01*
X23653Y137487D01*
X24049Y136532D01*
X24101Y136269D01*
X20269Y136269D01*
G37*
%LPD*%
%LPC*%
G36*
X457769Y136269D02*
X457769Y136269D01*
X457769Y140101D01*
X458032Y140049D01*
X458987Y139653D01*
X459847Y139079D01*
X460579Y138347D01*
X461153Y137487D01*
X461549Y136532D01*
X461601Y136269D01*
X457769Y136269D01*
G37*
%LPD*%
%LPC*%
G36*
X523769Y176269D02*
X523769Y176269D01*
X523769Y180101D01*
X524032Y180049D01*
X524987Y179653D01*
X525847Y179079D01*
X526579Y178347D01*
X527153Y177487D01*
X527549Y176532D01*
X527601Y176269D01*
X523769Y176269D01*
G37*
%LPD*%
%LPC*%
G36*
X163769Y176269D02*
X163769Y176269D01*
X163769Y180101D01*
X164032Y180049D01*
X164987Y179653D01*
X165847Y179079D01*
X166579Y178347D01*
X167153Y177487D01*
X167549Y176532D01*
X167601Y176269D01*
X163769Y176269D01*
G37*
%LPD*%
%LPC*%
G36*
X277769Y136269D02*
X277769Y136269D01*
X277769Y140101D01*
X278032Y140049D01*
X278987Y139653D01*
X279847Y139079D01*
X280579Y138347D01*
X281153Y137487D01*
X281549Y136532D01*
X281601Y136269D01*
X277769Y136269D01*
G37*
%LPD*%
%LPC*%
G36*
X523769Y173731D02*
X523769Y173731D01*
X527601Y173731D01*
X527549Y173468D01*
X527153Y172513D01*
X526579Y171653D01*
X525847Y170921D01*
X524987Y170347D01*
X524032Y169951D01*
X523769Y169899D01*
X523769Y173731D01*
G37*
%LPD*%
%LPC*%
G36*
X343769Y173731D02*
X343769Y173731D01*
X347601Y173731D01*
X347549Y173468D01*
X347153Y172513D01*
X346579Y171653D01*
X345847Y170921D01*
X344987Y170347D01*
X344032Y169951D01*
X343769Y169899D01*
X343769Y173731D01*
G37*
%LPD*%
%LPC*%
G36*
X193899Y136269D02*
X193899Y136269D01*
X193951Y136532D01*
X194347Y137487D01*
X194921Y138347D01*
X195653Y139079D01*
X196513Y139653D01*
X197468Y140049D01*
X197731Y140101D01*
X197731Y136269D01*
X193899Y136269D01*
G37*
%LPD*%
%LPC*%
G36*
X373899Y136269D02*
X373899Y136269D01*
X373951Y136532D01*
X374347Y137487D01*
X374921Y138347D01*
X375653Y139079D01*
X376513Y139653D01*
X377468Y140049D01*
X377731Y140101D01*
X377731Y136269D01*
X373899Y136269D01*
G37*
%LPD*%
%LPC*%
G36*
X13899Y136269D02*
X13899Y136269D01*
X13951Y136532D01*
X14347Y137487D01*
X14921Y138347D01*
X15653Y139079D01*
X16513Y139653D01*
X17468Y140049D01*
X17731Y140101D01*
X17731Y136269D01*
X13899Y136269D01*
G37*
%LPD*%
%LPC*%
G36*
X337399Y176269D02*
X337399Y176269D01*
X337451Y176532D01*
X337847Y177487D01*
X338421Y178347D01*
X339153Y179079D01*
X340013Y179653D01*
X340968Y180049D01*
X341231Y180101D01*
X341231Y176269D01*
X337399Y176269D01*
G37*
%LPD*%
%LPC*%
G36*
X517399Y176269D02*
X517399Y176269D01*
X517451Y176532D01*
X517847Y177487D01*
X518421Y178347D01*
X519153Y179079D01*
X520013Y179653D01*
X520968Y180049D01*
X521231Y180101D01*
X521231Y176269D01*
X517399Y176269D01*
G37*
%LPD*%
%LPC*%
G36*
X157399Y176269D02*
X157399Y176269D01*
X157451Y176532D01*
X157847Y177487D01*
X158421Y178347D01*
X159153Y179079D01*
X160013Y179653D01*
X160968Y180049D01*
X161231Y180101D01*
X161231Y176269D01*
X157399Y176269D01*
G37*
%LPD*%
%LPC*%
G36*
X163769Y173731D02*
X163769Y173731D01*
X167601Y173731D01*
X167549Y173468D01*
X167153Y172513D01*
X166579Y171653D01*
X165847Y170921D01*
X164987Y170347D01*
X164032Y169951D01*
X163769Y169899D01*
X163769Y173731D01*
G37*
%LPD*%
%LPC*%
G36*
X520968Y169951D02*
X520968Y169951D01*
X520013Y170347D01*
X519153Y170921D01*
X518421Y171653D01*
X517847Y172513D01*
X517451Y173468D01*
X517399Y173731D01*
X521231Y173731D01*
X521231Y169899D01*
X520968Y169951D01*
G37*
%LPD*%
%LPC*%
G36*
X340968Y169951D02*
X340968Y169951D01*
X340013Y170347D01*
X339153Y170921D01*
X338421Y171653D01*
X337847Y172513D01*
X337451Y173468D01*
X337399Y173731D01*
X341231Y173731D01*
X341231Y169899D01*
X340968Y169951D01*
G37*
%LPD*%
%LPC*%
G36*
X263468Y174951D02*
X263468Y174951D01*
X262513Y175347D01*
X261653Y175921D01*
X260921Y176653D01*
X260347Y177513D01*
X259951Y178468D01*
X259899Y178731D01*
X263731Y178731D01*
X263731Y174899D01*
X263468Y174951D01*
G37*
%LPD*%
%LPC*%
G36*
X443468Y174951D02*
X443468Y174951D01*
X442513Y175347D01*
X441653Y175921D01*
X440921Y176653D01*
X440347Y177513D01*
X439951Y178468D01*
X439899Y178731D01*
X443731Y178731D01*
X443731Y174899D01*
X443468Y174951D01*
G37*
%LPD*%
%LPC*%
G36*
X83468Y174951D02*
X83468Y174951D01*
X82513Y175347D01*
X81653Y175921D01*
X80921Y176653D01*
X80347Y177513D01*
X79951Y178468D01*
X79899Y178731D01*
X83731Y178731D01*
X83731Y174899D01*
X83468Y174951D01*
G37*
%LPD*%
%LPC*%
G36*
X160968Y169951D02*
X160968Y169951D01*
X160013Y170347D01*
X159153Y170921D01*
X158421Y171653D01*
X157847Y172513D01*
X157451Y173468D01*
X157399Y173731D01*
X161231Y173731D01*
X161231Y169899D01*
X160968Y169951D01*
G37*
%LPD*%
D10*
X488100Y300000D03*
X462700Y300000D03*
X437300Y300000D03*
X411900Y300000D03*
X604050Y170050D03*
X629450Y170050D03*
X654850Y170050D03*
X680250Y170050D03*
X705650Y170050D03*
X731050Y170050D03*
X756450Y170050D03*
X781850Y170050D03*
X807250Y170050D03*
X832650Y170050D03*
X858050Y170050D03*
X883450Y170050D03*
X908850Y170050D03*
X934250Y170050D03*
X959650Y170050D03*
X604050Y17650D03*
X629450Y17650D03*
X654850Y17650D03*
X680250Y17650D03*
X705650Y17650D03*
X731050Y17650D03*
X756450Y17650D03*
X781850Y17650D03*
X807250Y17650D03*
X832650Y17650D03*
X858050Y17650D03*
X883450Y17650D03*
X908850Y17650D03*
X934250Y17650D03*
X959650Y17650D03*
D11*
X744600Y280750D03*
X795400Y280750D03*
X578600Y278600D03*
X629400Y278600D03*
D10*
X308100Y300000D03*
X282700Y300000D03*
X257300Y300000D03*
X231900Y300000D03*
X128100Y300000D03*
X102700Y300000D03*
X77300Y300000D03*
X51900Y300000D03*
X53400Y12500D03*
X78800Y12500D03*
X104200Y12500D03*
X129600Y12500D03*
X233400Y12500D03*
X258800Y12500D03*
X284200Y12500D03*
X309600Y12500D03*
X413400Y12500D03*
X438800Y12500D03*
X464200Y12500D03*
X489600Y12500D03*
X882000Y243300D03*
X945000Y243300D03*
X912000Y293300D03*
D12*
X402500Y175500D03*
D13*
X425000Y252000D02*
X425000Y265000D01*
D12*
X475000Y251500D03*
X222500Y175000D03*
X246000Y252500D03*
X42500Y175000D03*
D13*
X475000Y251500D02*
X475000Y262500D01*
D12*
X295000Y252500D03*
D13*
X295000Y262500D01*
X246000Y262500D02*
X246000Y252500D01*
D12*
X115000Y252500D03*
D13*
X115000Y262500D01*
X65000Y265000D02*
X65000Y252500D01*
D12*
X499000Y135000D03*
D13*
X476500Y60000D02*
X476500Y45000D01*
D12*
X426500Y60000D03*
D13*
X426500Y50000D01*
D12*
X319000Y135000D03*
D13*
X246500Y60000D02*
X246500Y45000D01*
D12*
X246500Y60000D03*
D13*
X296500Y60000D02*
X296500Y45000D01*
D12*
X139000Y135000D03*
D13*
X66500Y60000D02*
X66500Y45000D01*
D12*
X66500Y60000D03*
D13*
X116500Y60000D02*
X116500Y45000D01*
D12*
X425000Y252000D03*
X65000Y252500D03*
X476500Y60000D03*
X296500Y60000D03*
X116500Y60000D03*
D14*
X180000Y270000D03*
X180000Y42500D03*
X540000Y270000D03*
X540000Y42500D03*
D12*
X476000Y288000D03*
X490000Y251000D03*
X409500Y251000D03*
X462500Y232500D03*
X424000Y288000D03*
X437500Y232500D03*
D15*
X450000Y220000D03*
D12*
X437500Y207500D03*
X462500Y207500D03*
X282500Y232500D03*
X257500Y232500D03*
D15*
X270000Y220000D03*
D12*
X257500Y207500D03*
X282500Y207500D03*
X296000Y288000D03*
X244000Y288000D03*
X229500Y252000D03*
X310000Y251000D03*
X102500Y232500D03*
X77500Y232500D03*
D15*
X90000Y220000D03*
D12*
X77500Y207500D03*
X102500Y207500D03*
X116000Y288000D03*
X64000Y288000D03*
X50000Y252500D03*
X130000Y252500D03*
X58000Y27000D03*
X131500Y60000D03*
X79000Y80000D03*
X104000Y80000D03*
D15*
X91500Y92500D03*
D12*
X104000Y105000D03*
X79000Y105000D03*
X65500Y24500D03*
X117500Y24500D03*
X51500Y60000D03*
X259000Y80000D03*
X284000Y80000D03*
D15*
X271500Y92500D03*
D12*
X284000Y105000D03*
X259000Y105000D03*
X245500Y24500D03*
X297500Y24500D03*
X311500Y60000D03*
X231500Y60000D03*
X439000Y80000D03*
X464000Y80000D03*
D15*
X451500Y92500D03*
D12*
X464000Y105000D03*
X439000Y105000D03*
X425500Y24500D03*
X477500Y24500D03*
X491500Y60000D03*
X411500Y60000D03*
X445000Y180000D03*
X342500Y175000D03*
X85000Y180000D03*
X265000Y180000D03*
X162500Y175000D03*
X522500Y175000D03*
D13*
X522500Y172500D01*
D12*
X456500Y135000D03*
X276500Y135000D03*
X199000Y135000D03*
X96500Y135000D03*
X19000Y135000D03*
X379000Y135000D03*
D14*
X577500Y175000D03*
D16*
X537500Y175000D01*
D12*
X453000Y172500D03*
X477000Y195000D03*
X505000Y227000D03*
D13*
X715000Y227500D01*
X718000Y224500D01*
X719000Y224500D01*
D14*
X719000Y224500D03*
D12*
X325000Y207500D03*
D13*
X420000Y207500D01*
X427500Y200000D01*
X467500Y200000D01*
X472500Y205000D01*
X492500Y205000D01*
X497500Y200000D01*
X743500Y200000D01*
D14*
X743500Y200000D03*
D12*
X325000Y227500D03*
D13*
X422500Y227500D01*
X435000Y240000D01*
X465000Y240000D01*
X470000Y235000D01*
X765000Y235000D01*
X770000Y230000D01*
X769500Y230000D01*
D14*
X769500Y230000D03*
D12*
X145000Y207500D03*
D13*
X165000Y187500D01*
X795000Y187500D01*
D14*
X795000Y187500D03*
D12*
X145000Y227500D03*
D13*
X162500Y242500D01*
X427500Y242500D01*
X430000Y245000D01*
X470000Y245000D01*
X472500Y242500D01*
X820000Y242500D01*
D14*
X820000Y242500D03*
D12*
X36500Y105000D03*
D13*
X530000Y110000D02*
X858000Y110000D01*
X530000Y110000D02*
X525000Y115000D01*
X487500Y115000D01*
X480000Y122500D01*
X442500Y122500D01*
X435000Y130000D01*
X412500Y130000D01*
X400000Y117500D01*
X267500Y117500D01*
X260000Y125000D01*
X240000Y125000D01*
X227500Y112500D01*
X72500Y112500D01*
X65000Y105000D01*
X36500Y105000D01*
D14*
X858000Y110000D03*
D12*
X36500Y85000D03*
D13*
X447500Y127500D02*
X883500Y127500D01*
X447500Y127500D02*
X440000Y135000D01*
X407500Y135000D01*
X395000Y122500D01*
X272500Y122500D01*
X265000Y130000D01*
X237500Y130000D01*
X232500Y125000D01*
X32500Y125000D01*
X25000Y115000D01*
X25000Y95000D01*
X35000Y85000D01*
X36500Y85000D01*
D14*
X883500Y127500D03*
D12*
X506000Y207000D03*
D13*
X687500Y207500D01*
X692000Y212000D01*
X692500Y212000D01*
D14*
X692500Y212000D03*
D12*
X216500Y105000D03*
D13*
X530000Y90000D02*
X909000Y90000D01*
X530000Y90000D02*
X510000Y110000D01*
X482500Y110000D01*
X475000Y117500D01*
X437500Y117500D01*
X430000Y125000D01*
X417500Y125000D01*
X405000Y112500D01*
X252500Y112500D01*
X245000Y105000D01*
X216500Y105000D01*
D14*
X909000Y90000D03*
D12*
X216500Y85000D03*
D13*
X934250Y17650D02*
X934500Y20000D01*
X934500Y37500D01*
X582500Y37500D01*
X552500Y67500D01*
X232500Y67500D01*
X216500Y85000D01*
D12*
X397500Y105000D03*
D13*
X425000Y105000D01*
X432500Y112500D01*
X470000Y112500D01*
X477500Y105000D01*
X505000Y105000D01*
X530000Y80000D01*
X570000Y80000D01*
X580000Y70000D01*
X959500Y70000D01*
D14*
X959500Y70000D03*
D12*
X396500Y85000D03*
D13*
X959650Y170050D02*
X960000Y170000D01*
X960000Y140000D01*
X970000Y140000D01*
X970000Y52500D01*
X582500Y52500D01*
X562500Y72500D01*
X410000Y72500D01*
X396500Y85000D01*
D12*
X272000Y172000D03*
X297000Y194500D03*
X89000Y142500D03*
X64500Y117000D03*
X92500Y172500D03*
X117000Y195000D03*
X449000Y145000D03*
X424500Y117000D03*
X269000Y145000D03*
X245500Y117000D03*
M02*
