M48
;GenerationSoftware,Autodesk,EAGLE,9.6.2*%
;CreationDate,2024-02-29T12:37:00Z*%
FMAT,2
ICI,OFF
METRIC,TZ,000.000
T6C0.400
T5C0.700
T4C0.813
T3C1.000
T2C1.500
T1C2.100
%
G90
M71
T1
X36000Y28000
X69000Y28000
X36000Y2000
T2
X45150Y9250
X27150Y9250
X45000Y22000
X9000Y22000
X9150Y9250
X27000Y22000
T3
X5190Y30000
X5340Y1250
X7880Y1250
X10420Y1250
X12960Y1250
X91200Y29330
X23340Y1250
X25880Y1250
X28420Y1250
X30960Y1250
X41340Y1250
X43880Y1250
X46420Y1250
X48960Y1250
X88200Y24330
X94500Y24330
X48810Y30000
X46270Y30000
X43730Y30000
X41190Y30000
X60405Y17005
X62945Y17005
X65485Y17005
X68025Y17005
X70565Y17005
X73105Y17005
X75645Y17005
X78185Y17005
X80725Y17005
X83265Y17005
X85805Y17005
X88345Y17005
X90885Y17005
X93425Y17005
X95965Y17005
X60405Y1765
X62945Y1765
X65485Y1765
X68025Y1765
X70565Y1765
X73105Y1765
X75645Y1765
X78185Y1765
X80725Y1765
X83265Y1765
X85805Y1765
X88345Y1765
X90885Y1765
X93425Y1765
X95965Y1765
X30810Y30000
X28270Y30000
X25730Y30000
X23190Y30000
X12810Y30000
X10270Y30000
X7730Y30000
T4
X79540Y28075
X57860Y27860
X74460Y28075
X62940Y27860
T5
X18000Y27000
X18000Y4250
X54000Y27000
X54000Y4250
X57750Y17500
X71900Y22450
X74350Y20000
X76950Y23000
X79500Y18750
X82000Y24250
X85800Y11000
X88350Y12750
X69250Y21200
X90900Y9000
X95950Y7000
T6
X45650Y13500
X27650Y13500
X19900Y13500
X9650Y13500
X1900Y13500
X37900Y13500
X45300Y17250
X47700Y19500
X50500Y22700
X49000Y25100
X40250Y17550
X32500Y22750
X47500Y25150
X14500Y20750
X22250Y17500
X14500Y22750
X24600Y25250
X3650Y10500
X4250Y17500
X3650Y8500
X29500Y25250
X50600Y20700
X11500Y25250
X21650Y10500
X49900Y13500
X21650Y8500
X39750Y10500
X42650Y6000
X39650Y8500
X27200Y17200
X29700Y19450
X8900Y14250
X6450Y11700
X9250Y17250
X11700Y19500
X44900Y14500
X42450Y11700
X26900Y14500
X24550Y11700
X31900Y13500
X24650Y6000
X13900Y13500
X6650Y6000
X42500Y25200
X6500Y25250
X47650Y6000
X29650Y6000
X11650Y6000
X47600Y28800
X40950Y25100
X46250Y23250
X42400Y28800
X43750Y23250
X43750Y20750
X46250Y20750
X28250Y23250
X25750Y23250
X25750Y20750
X28250Y20750
X29600Y28800
X24400Y28800
X22950Y25200
X31000Y25100
X10250Y23250
X7750Y23250
X7750Y20750
X10250Y20750
X11600Y28800
X6400Y28800
X5000Y25250
X13000Y25250
X5800Y2700
X13150Y6000
X7900Y8000
X10400Y8000
X10400Y10500
X7900Y10500
X6550Y2450
X11750Y2450
X32500Y20750
X5150Y6000
X25900Y8000
X28400Y8000
X28400Y10500
X25900Y10500
X24550Y2450
X29750Y2450
X31150Y6000
X23150Y6000
X43900Y8000
X46400Y8000
X46400Y10500
X43900Y10500
X42550Y2450
X47750Y2450
X49150Y6000
X41150Y6000
X44500Y18000
X34250Y17500
X8500Y18000
X26500Y18000
X16250Y17500
X52250Y17500
M30