G04 EAGLE Gerber RS-274X export*
G75*
%MOMM*%
%FSLAX34Y34*%
%LPD*%
%IN*%
%IPPOS*%
%AMOC8*
5,1,8,0,0,1.08239X$1,22.5*%
G01*
%ADD10C,0.254000*%


D10*
X0Y0D02*
X990000Y0D01*
X990000Y312500D01*
X0Y312500D01*
X0Y0D01*
X896000Y293300D02*
X896019Y292864D01*
X896076Y292432D01*
X896170Y292006D01*
X896302Y291590D01*
X896468Y291187D01*
X896670Y290800D01*
X896904Y290432D01*
X897170Y290086D01*
X897464Y289764D01*
X897786Y289470D01*
X898132Y289204D01*
X898500Y288970D01*
X898887Y288768D01*
X899290Y288602D01*
X899706Y288470D01*
X900132Y288376D01*
X900564Y288319D01*
X901000Y288300D01*
X923000Y288300D01*
X923436Y288319D01*
X923868Y288376D01*
X924294Y288470D01*
X924710Y288602D01*
X925113Y288768D01*
X925500Y288970D01*
X925868Y289204D01*
X926214Y289470D01*
X926536Y289764D01*
X926830Y290086D01*
X927096Y290432D01*
X927330Y290800D01*
X927532Y291187D01*
X927698Y291590D01*
X927830Y292006D01*
X927924Y292432D01*
X927981Y292864D01*
X928000Y293300D01*
X927981Y293736D01*
X927924Y294168D01*
X927830Y294594D01*
X927698Y295010D01*
X927532Y295413D01*
X927330Y295800D01*
X927096Y296168D01*
X926830Y296514D01*
X926536Y296836D01*
X926214Y297130D01*
X925868Y297396D01*
X925500Y297630D01*
X925113Y297832D01*
X924710Y297998D01*
X924294Y298130D01*
X923868Y298224D01*
X923436Y298281D01*
X923000Y298300D01*
X901000Y298300D01*
X900564Y298281D01*
X900132Y298224D01*
X899706Y298130D01*
X899290Y297998D01*
X898887Y297832D01*
X898500Y297630D01*
X898132Y297396D01*
X897786Y297130D01*
X897464Y296836D01*
X897170Y296514D01*
X896904Y296168D01*
X896670Y295800D01*
X896468Y295413D01*
X896302Y295010D01*
X896170Y294594D01*
X896076Y294168D01*
X896019Y293736D01*
X896000Y293300D01*
X940000Y232300D02*
X940019Y231864D01*
X940076Y231432D01*
X940170Y231006D01*
X940302Y230590D01*
X940468Y230187D01*
X940670Y229800D01*
X940904Y229432D01*
X941170Y229086D01*
X941464Y228764D01*
X941786Y228470D01*
X942132Y228204D01*
X942500Y227970D01*
X942887Y227768D01*
X943290Y227602D01*
X943706Y227470D01*
X944132Y227376D01*
X944564Y227319D01*
X945000Y227300D01*
X945436Y227319D01*
X945868Y227376D01*
X946294Y227470D01*
X946710Y227602D01*
X947113Y227768D01*
X947500Y227970D01*
X947868Y228204D01*
X948214Y228470D01*
X948536Y228764D01*
X948830Y229086D01*
X949096Y229432D01*
X949330Y229800D01*
X949532Y230187D01*
X949698Y230590D01*
X949830Y231006D01*
X949924Y231432D01*
X949981Y231864D01*
X950000Y232300D01*
X950000Y254300D01*
X949981Y254736D01*
X949924Y255168D01*
X949830Y255594D01*
X949698Y256010D01*
X949532Y256413D01*
X949330Y256800D01*
X949096Y257168D01*
X948830Y257514D01*
X948536Y257836D01*
X948214Y258130D01*
X947868Y258396D01*
X947500Y258630D01*
X947113Y258832D01*
X946710Y258998D01*
X946294Y259130D01*
X945868Y259224D01*
X945436Y259281D01*
X945000Y259300D01*
X944564Y259281D01*
X944132Y259224D01*
X943706Y259130D01*
X943290Y258998D01*
X942887Y258832D01*
X942500Y258630D01*
X942132Y258396D01*
X941786Y258130D01*
X941464Y257836D01*
X941170Y257514D01*
X940904Y257168D01*
X940670Y256800D01*
X940468Y256413D01*
X940302Y256010D01*
X940170Y255594D01*
X940076Y255168D01*
X940019Y254736D01*
X940000Y254300D01*
X940000Y232300D01*
X882000Y227300D02*
X882436Y227319D01*
X882868Y227376D01*
X883294Y227470D01*
X883710Y227602D01*
X884113Y227768D01*
X884500Y227970D01*
X884868Y228204D01*
X885214Y228470D01*
X885536Y228764D01*
X885830Y229086D01*
X886096Y229432D01*
X886330Y229800D01*
X886532Y230187D01*
X886698Y230590D01*
X886830Y231006D01*
X886924Y231432D01*
X886981Y231864D01*
X887000Y232300D01*
X887000Y254300D01*
X886981Y254736D01*
X886924Y255168D01*
X886830Y255594D01*
X886698Y256010D01*
X886532Y256413D01*
X886330Y256800D01*
X886096Y257168D01*
X885830Y257514D01*
X885536Y257836D01*
X885214Y258130D01*
X884868Y258396D01*
X884500Y258630D01*
X884113Y258832D01*
X883710Y258998D01*
X883294Y259130D01*
X882868Y259224D01*
X882436Y259281D01*
X882000Y259300D01*
X882000Y227300D01*
X877000Y232300D02*
X877019Y231864D01*
X877076Y231432D01*
X877170Y231006D01*
X877302Y230590D01*
X877468Y230187D01*
X877670Y229800D01*
X877904Y229432D01*
X878170Y229086D01*
X878464Y228764D01*
X878786Y228470D01*
X879132Y228204D01*
X879500Y227970D01*
X879887Y227768D01*
X880290Y227602D01*
X880706Y227470D01*
X881132Y227376D01*
X881564Y227319D01*
X882000Y227300D01*
X882000Y259300D01*
X881564Y259281D01*
X881132Y259224D01*
X880706Y259130D01*
X880290Y258998D01*
X879887Y258832D01*
X879500Y258630D01*
X879132Y258396D01*
X878786Y258130D01*
X878464Y257836D01*
X878170Y257514D01*
X877904Y257168D01*
X877670Y256800D01*
X877468Y256413D01*
X877302Y256010D01*
X877170Y255594D01*
X877076Y255168D01*
X877019Y254736D01*
X877000Y254300D01*
X877000Y232300D01*
X877000Y232300D02*
X877019Y231864D01*
X877076Y231432D01*
X877170Y231006D01*
X877302Y230590D01*
X877468Y230187D01*
X877670Y229800D01*
X877904Y229432D01*
X878170Y229086D01*
X878464Y228764D01*
X878786Y228470D01*
X879132Y228204D01*
X879500Y227970D01*
X879887Y227768D01*
X880290Y227602D01*
X880706Y227470D01*
X881132Y227376D01*
X881564Y227319D01*
X882000Y227300D01*
X882436Y227319D01*
X882868Y227376D01*
X883294Y227470D01*
X883710Y227602D01*
X884113Y227768D01*
X884500Y227970D01*
X884868Y228204D01*
X885214Y228470D01*
X885536Y228764D01*
X885830Y229086D01*
X886096Y229432D01*
X886330Y229800D01*
X886532Y230187D01*
X886698Y230590D01*
X886830Y231006D01*
X886924Y231432D01*
X886981Y231864D01*
X887000Y232300D01*
X887000Y254300D01*
X886981Y254736D01*
X886924Y255168D01*
X886830Y255594D01*
X886698Y256010D01*
X886532Y256413D01*
X886330Y256800D01*
X886096Y257168D01*
X885830Y257514D01*
X885536Y257836D01*
X885214Y258130D01*
X884868Y258396D01*
X884500Y258630D01*
X884113Y258832D01*
X883710Y258998D01*
X883294Y259130D01*
X882868Y259224D01*
X882436Y259281D01*
X882000Y259300D01*
X881564Y259281D01*
X881132Y259224D01*
X880706Y259130D01*
X880290Y258998D01*
X879887Y258832D01*
X879500Y258630D01*
X879132Y258396D01*
X878786Y258130D01*
X878464Y257836D01*
X878170Y257514D01*
X877904Y257168D01*
X877670Y256800D01*
X877468Y256413D01*
X877302Y256010D01*
X877170Y255594D01*
X877076Y255168D01*
X877019Y254736D01*
X877000Y254300D01*
X877000Y232300D01*
X370500Y279587D02*
X370435Y278765D01*
X370306Y277950D01*
X370114Y277148D01*
X369859Y276363D01*
X369543Y275601D01*
X369168Y274866D01*
X368737Y274162D01*
X368252Y273495D01*
X367716Y272867D01*
X367133Y272284D01*
X366506Y271748D01*
X365838Y271263D01*
X365134Y270832D01*
X364399Y270457D01*
X363637Y270141D01*
X362852Y269886D01*
X362050Y269694D01*
X361235Y269565D01*
X360413Y269500D01*
X359587Y269500D01*
X358765Y269565D01*
X357950Y269694D01*
X357148Y269886D01*
X356363Y270141D01*
X355601Y270457D01*
X354866Y270832D01*
X354162Y271263D01*
X353495Y271748D01*
X352867Y272284D01*
X352284Y272867D01*
X351748Y273495D01*
X351263Y274162D01*
X350832Y274866D01*
X350457Y275601D01*
X350141Y276363D01*
X349886Y277148D01*
X349694Y277950D01*
X349565Y278765D01*
X349500Y279587D01*
X349500Y280413D01*
X349565Y281235D01*
X349694Y282050D01*
X349886Y282852D01*
X350141Y283637D01*
X350457Y284399D01*
X350832Y285134D01*
X351263Y285838D01*
X351748Y286506D01*
X352284Y287133D01*
X352867Y287716D01*
X353495Y288252D01*
X354162Y288737D01*
X354866Y289168D01*
X355601Y289543D01*
X356363Y289859D01*
X357148Y290114D01*
X357950Y290306D01*
X358765Y290435D01*
X359587Y290500D01*
X360413Y290500D01*
X361235Y290435D01*
X362050Y290306D01*
X362852Y290114D01*
X363637Y289859D01*
X364399Y289543D01*
X365134Y289168D01*
X365838Y288737D01*
X366506Y288252D01*
X367133Y287716D01*
X367716Y287133D01*
X368252Y286506D01*
X368737Y285838D01*
X369168Y285134D01*
X369543Y284399D01*
X369859Y283637D01*
X370114Y282852D01*
X370306Y282050D01*
X370435Y281235D01*
X370500Y280413D01*
X370500Y279587D01*
X700500Y279587D02*
X700435Y278765D01*
X700306Y277950D01*
X700114Y277148D01*
X699859Y276363D01*
X699543Y275601D01*
X699168Y274866D01*
X698737Y274162D01*
X698252Y273495D01*
X697716Y272867D01*
X697133Y272284D01*
X696506Y271748D01*
X695838Y271263D01*
X695134Y270832D01*
X694399Y270457D01*
X693637Y270141D01*
X692852Y269886D01*
X692050Y269694D01*
X691235Y269565D01*
X690413Y269500D01*
X689587Y269500D01*
X688765Y269565D01*
X687950Y269694D01*
X687148Y269886D01*
X686363Y270141D01*
X685601Y270457D01*
X684866Y270832D01*
X684162Y271263D01*
X683495Y271748D01*
X682867Y272284D01*
X682284Y272867D01*
X681748Y273495D01*
X681263Y274162D01*
X680832Y274866D01*
X680457Y275601D01*
X680141Y276363D01*
X679886Y277148D01*
X679694Y277950D01*
X679565Y278765D01*
X679500Y279587D01*
X679500Y280413D01*
X679565Y281235D01*
X679694Y282050D01*
X679886Y282852D01*
X680141Y283637D01*
X680457Y284399D01*
X680832Y285134D01*
X681263Y285838D01*
X681748Y286506D01*
X682284Y287133D01*
X682867Y287716D01*
X683495Y288252D01*
X684162Y288737D01*
X684866Y289168D01*
X685601Y289543D01*
X686363Y289859D01*
X687148Y290114D01*
X687950Y290306D01*
X688765Y290435D01*
X689587Y290500D01*
X690413Y290500D01*
X691235Y290435D01*
X692050Y290306D01*
X692852Y290114D01*
X693637Y289859D01*
X694399Y289543D01*
X695134Y289168D01*
X695838Y288737D01*
X696506Y288252D01*
X697133Y287716D01*
X697716Y287133D01*
X698252Y286506D01*
X698737Y285838D01*
X699168Y285134D01*
X699543Y284399D01*
X699859Y283637D01*
X700114Y282852D01*
X700306Y282050D01*
X700435Y281235D01*
X700500Y280413D01*
X700500Y279587D01*
X370500Y19587D02*
X370435Y18765D01*
X370306Y17950D01*
X370114Y17148D01*
X369859Y16363D01*
X369543Y15601D01*
X369168Y14866D01*
X368737Y14162D01*
X368252Y13495D01*
X367716Y12867D01*
X367133Y12284D01*
X366506Y11748D01*
X365838Y11263D01*
X365134Y10832D01*
X364399Y10457D01*
X363637Y10141D01*
X362852Y9886D01*
X362050Y9694D01*
X361235Y9565D01*
X360413Y9500D01*
X359587Y9500D01*
X358765Y9565D01*
X357950Y9694D01*
X357148Y9886D01*
X356363Y10141D01*
X355601Y10457D01*
X354866Y10832D01*
X354162Y11263D01*
X353495Y11748D01*
X352867Y12284D01*
X352284Y12867D01*
X351748Y13495D01*
X351263Y14162D01*
X350832Y14866D01*
X350457Y15601D01*
X350141Y16363D01*
X349886Y17148D01*
X349694Y17950D01*
X349565Y18765D01*
X349500Y19587D01*
X349500Y20413D01*
X349565Y21235D01*
X349694Y22050D01*
X349886Y22852D01*
X350141Y23637D01*
X350457Y24399D01*
X350832Y25134D01*
X351263Y25838D01*
X351748Y26506D01*
X352284Y27133D01*
X352867Y27716D01*
X353495Y28252D01*
X354162Y28737D01*
X354866Y29168D01*
X355601Y29543D01*
X356363Y29859D01*
X357148Y30114D01*
X357950Y30306D01*
X358765Y30435D01*
X359587Y30500D01*
X360413Y30500D01*
X361235Y30435D01*
X362050Y30306D01*
X362852Y30114D01*
X363637Y29859D01*
X364399Y29543D01*
X365134Y29168D01*
X365838Y28737D01*
X366506Y28252D01*
X367133Y27716D01*
X367716Y27133D01*
X368252Y26506D01*
X368737Y25838D01*
X369168Y25134D01*
X369543Y24399D01*
X369859Y23637D01*
X370114Y22852D01*
X370306Y22050D01*
X370435Y21235D01*
X370500Y20413D01*
X370500Y19587D01*
M02*
