G04 EAGLE Gerber RS-274X export*
G75*
%MOMM*%
%FSLAX34Y34*%
%LPD*%
%INSoldermask Top*%
%IPPOS*%
%AMOC8*
5,1,8,0,0,1.08239X$1,22.5*%
G01*
%ADD10C,2.100000*%
%ADD11C,1.500000*%
%ADD12R,1.500000X0.300000*%
%ADD13R,0.300000X1.500000*%
%ADD14R,3.200000X3.200000*%
%ADD15R,1.000000X1.100000*%
%ADD16R,1.100000X1.000000*%
%ADD17C,1.905000*%
%ADD18P,2.061953X8X22.500000*%
%ADD19C,2.000000*%
%ADD20C,2.250000*%


D10*
X360000Y280000D03*
X690000Y280000D03*
X360000Y20000D03*
D11*
X488100Y300000D03*
X462700Y300000D03*
X437300Y300000D03*
X411900Y300000D03*
X604050Y170050D03*
X629450Y170050D03*
X654850Y170050D03*
X680250Y170050D03*
X705650Y170050D03*
X731050Y170050D03*
X756450Y170050D03*
X781850Y170050D03*
X807250Y170050D03*
X832650Y170050D03*
X858050Y170050D03*
X883450Y170050D03*
X908850Y170050D03*
X934250Y170050D03*
X959650Y170050D03*
X604050Y17650D03*
X629450Y17650D03*
X654850Y17650D03*
X680250Y17650D03*
X705650Y17650D03*
X731050Y17650D03*
X756450Y17650D03*
X781850Y17650D03*
X807250Y17650D03*
X832650Y17650D03*
X858050Y17650D03*
X883450Y17650D03*
X908850Y17650D03*
X934250Y17650D03*
X959650Y17650D03*
D12*
X422500Y235000D03*
X422500Y230000D03*
X422500Y225000D03*
X422500Y220000D03*
X422500Y215000D03*
X422500Y210000D03*
X422500Y205000D03*
D13*
X435000Y192500D03*
X440000Y192500D03*
X445000Y192500D03*
X450000Y192500D03*
X455000Y192500D03*
X460000Y192500D03*
X465000Y192500D03*
D12*
X477500Y205000D03*
X477500Y210000D03*
X477500Y215000D03*
X477500Y220000D03*
X477500Y225000D03*
X477500Y230000D03*
X477500Y235000D03*
D13*
X465000Y247500D03*
X460000Y247500D03*
X455000Y247500D03*
X450000Y247500D03*
X445000Y247500D03*
X440000Y247500D03*
X435000Y247500D03*
D14*
X450000Y220000D03*
D15*
X411500Y275000D03*
X428500Y275000D03*
X488500Y275000D03*
X471500Y275000D03*
D16*
X522500Y206000D03*
X522500Y189000D03*
X522500Y238500D03*
X522500Y221500D03*
D15*
X476500Y185000D03*
X493500Y185000D03*
X476500Y170000D03*
X493500Y170000D03*
X507500Y186000D03*
X507500Y169000D03*
D17*
X744600Y280750D03*
D18*
X795400Y280750D03*
D17*
X578600Y278600D03*
D18*
X629400Y278600D03*
D15*
X385000Y208500D03*
X385000Y191500D03*
X402500Y203500D03*
X402500Y186500D03*
X420000Y186000D03*
X420000Y169000D03*
D16*
X428500Y262500D03*
X411500Y262500D03*
X471500Y262500D03*
X488500Y262500D03*
X385000Y241500D03*
X385000Y258500D03*
D11*
X308100Y300000D03*
X282700Y300000D03*
X257300Y300000D03*
X231900Y300000D03*
D12*
X242500Y235000D03*
X242500Y230000D03*
X242500Y225000D03*
X242500Y220000D03*
X242500Y215000D03*
X242500Y210000D03*
X242500Y205000D03*
D13*
X255000Y192500D03*
X260000Y192500D03*
X265000Y192500D03*
X270000Y192500D03*
X275000Y192500D03*
X280000Y192500D03*
X285000Y192500D03*
D12*
X297500Y205000D03*
X297500Y210000D03*
X297500Y215000D03*
X297500Y220000D03*
X297500Y225000D03*
X297500Y230000D03*
X297500Y235000D03*
D13*
X285000Y247500D03*
X280000Y247500D03*
X275000Y247500D03*
X270000Y247500D03*
X265000Y247500D03*
X260000Y247500D03*
X255000Y247500D03*
D14*
X270000Y220000D03*
D15*
X231500Y275000D03*
X248500Y275000D03*
X308500Y275000D03*
X291500Y275000D03*
D16*
X342500Y206000D03*
X342500Y189000D03*
X342500Y238500D03*
X342500Y221500D03*
D15*
X296500Y185000D03*
X313500Y185000D03*
X296500Y170000D03*
X313500Y170000D03*
X327500Y186000D03*
X327500Y169000D03*
X205000Y208500D03*
X205000Y191500D03*
X222500Y203500D03*
X222500Y186500D03*
X240000Y186000D03*
X240000Y169000D03*
D16*
X248500Y262500D03*
X231500Y262500D03*
X291500Y262500D03*
X308500Y262500D03*
X205000Y241500D03*
X205000Y258500D03*
D11*
X128100Y300000D03*
X102700Y300000D03*
X77300Y300000D03*
X51900Y300000D03*
D12*
X62500Y235000D03*
X62500Y230000D03*
X62500Y225000D03*
X62500Y220000D03*
X62500Y215000D03*
X62500Y210000D03*
X62500Y205000D03*
D13*
X75000Y192500D03*
X80000Y192500D03*
X85000Y192500D03*
X90000Y192500D03*
X95000Y192500D03*
X100000Y192500D03*
X105000Y192500D03*
D12*
X117500Y205000D03*
X117500Y210000D03*
X117500Y215000D03*
X117500Y220000D03*
X117500Y225000D03*
X117500Y230000D03*
X117500Y235000D03*
D13*
X105000Y247500D03*
X100000Y247500D03*
X95000Y247500D03*
X90000Y247500D03*
X85000Y247500D03*
X80000Y247500D03*
X75000Y247500D03*
D14*
X90000Y220000D03*
D15*
X51500Y275000D03*
X68500Y275000D03*
X128500Y275000D03*
X111500Y275000D03*
D16*
X162500Y206000D03*
X162500Y189000D03*
X162500Y238500D03*
X162500Y221500D03*
D15*
X116500Y185000D03*
X133500Y185000D03*
X116500Y170000D03*
X133500Y170000D03*
X147500Y186000D03*
X147500Y169000D03*
X25000Y208500D03*
X25000Y191500D03*
X42500Y203500D03*
X42500Y186500D03*
X60000Y186000D03*
X60000Y169000D03*
D16*
X68500Y262500D03*
X51500Y262500D03*
X111500Y262500D03*
X128500Y262500D03*
X25000Y241500D03*
X25000Y258500D03*
D11*
X53400Y12500D03*
X78800Y12500D03*
X104200Y12500D03*
X129600Y12500D03*
D12*
X119000Y77500D03*
X119000Y82500D03*
X119000Y87500D03*
X119000Y92500D03*
X119000Y97500D03*
X119000Y102500D03*
X119000Y107500D03*
D13*
X106500Y120000D03*
X101500Y120000D03*
X96500Y120000D03*
X91500Y120000D03*
X86500Y120000D03*
X81500Y120000D03*
X76500Y120000D03*
D12*
X64000Y107500D03*
X64000Y102500D03*
X64000Y97500D03*
X64000Y92500D03*
X64000Y87500D03*
X64000Y82500D03*
X64000Y77500D03*
D13*
X76500Y65000D03*
X81500Y65000D03*
X86500Y65000D03*
X91500Y65000D03*
X96500Y65000D03*
X101500Y65000D03*
X106500Y65000D03*
D14*
X91500Y92500D03*
D15*
X130000Y37500D03*
X113000Y37500D03*
X53000Y37500D03*
X70000Y37500D03*
D16*
X19000Y106500D03*
X19000Y123500D03*
X19000Y74000D03*
X19000Y91000D03*
D15*
X65000Y127500D03*
X48000Y127500D03*
X65000Y142500D03*
X48000Y142500D03*
X34000Y126500D03*
X34000Y143500D03*
X156500Y104000D03*
X156500Y121000D03*
X139000Y109000D03*
X139000Y126000D03*
X121500Y126500D03*
X121500Y143500D03*
D16*
X113000Y50000D03*
X130000Y50000D03*
X70000Y50000D03*
X53000Y50000D03*
X156500Y71000D03*
X156500Y54000D03*
D11*
X233400Y12500D03*
X258800Y12500D03*
X284200Y12500D03*
X309600Y12500D03*
D12*
X299000Y77500D03*
X299000Y82500D03*
X299000Y87500D03*
X299000Y92500D03*
X299000Y97500D03*
X299000Y102500D03*
X299000Y107500D03*
D13*
X286500Y120000D03*
X281500Y120000D03*
X276500Y120000D03*
X271500Y120000D03*
X266500Y120000D03*
X261500Y120000D03*
X256500Y120000D03*
D12*
X244000Y107500D03*
X244000Y102500D03*
X244000Y97500D03*
X244000Y92500D03*
X244000Y87500D03*
X244000Y82500D03*
X244000Y77500D03*
D13*
X256500Y65000D03*
X261500Y65000D03*
X266500Y65000D03*
X271500Y65000D03*
X276500Y65000D03*
X281500Y65000D03*
X286500Y65000D03*
D14*
X271500Y92500D03*
D15*
X310000Y37500D03*
X293000Y37500D03*
X233000Y37500D03*
X250000Y37500D03*
D16*
X199000Y106500D03*
X199000Y123500D03*
X199000Y74000D03*
X199000Y91000D03*
D15*
X245000Y127500D03*
X228000Y127500D03*
X245000Y142500D03*
X228000Y142500D03*
X214000Y126500D03*
X214000Y143500D03*
X336500Y104000D03*
X336500Y121000D03*
X319000Y109000D03*
X319000Y126000D03*
X301500Y126500D03*
X301500Y143500D03*
D16*
X293000Y50000D03*
X310000Y50000D03*
X250000Y50000D03*
X233000Y50000D03*
X336500Y71000D03*
X336500Y54000D03*
D11*
X413400Y12500D03*
X438800Y12500D03*
X464200Y12500D03*
X489600Y12500D03*
D12*
X479000Y77500D03*
X479000Y82500D03*
X479000Y87500D03*
X479000Y92500D03*
X479000Y97500D03*
X479000Y102500D03*
X479000Y107500D03*
D13*
X466500Y120000D03*
X461500Y120000D03*
X456500Y120000D03*
X451500Y120000D03*
X446500Y120000D03*
X441500Y120000D03*
X436500Y120000D03*
D12*
X424000Y107500D03*
X424000Y102500D03*
X424000Y97500D03*
X424000Y92500D03*
X424000Y87500D03*
X424000Y82500D03*
X424000Y77500D03*
D13*
X436500Y65000D03*
X441500Y65000D03*
X446500Y65000D03*
X451500Y65000D03*
X456500Y65000D03*
X461500Y65000D03*
X466500Y65000D03*
D14*
X451500Y92500D03*
D15*
X490000Y37500D03*
X473000Y37500D03*
X413000Y37500D03*
X430000Y37500D03*
D16*
X379000Y106500D03*
X379000Y123500D03*
X379000Y74000D03*
X379000Y91000D03*
D15*
X425000Y127500D03*
X408000Y127500D03*
X425000Y142500D03*
X408000Y142500D03*
X394000Y126500D03*
X394000Y143500D03*
X516500Y104000D03*
X516500Y121000D03*
X499000Y109000D03*
X499000Y126000D03*
X481500Y126500D03*
X481500Y143500D03*
D16*
X473000Y50000D03*
X490000Y50000D03*
X430000Y50000D03*
X413000Y50000D03*
X516500Y71000D03*
X516500Y54000D03*
D19*
X882000Y233300D02*
X882000Y253300D01*
X945000Y253300D02*
X945000Y233300D01*
X922000Y293300D02*
X902000Y293300D01*
D20*
X450000Y220000D03*
X270000Y220000D03*
X90000Y220000D03*
X91500Y92500D03*
X271500Y92500D03*
X451500Y92500D03*
M02*
